<svg width="251" height="79" viewBox="0 0 251 79" fill="none" xmlns="http://www.w3.org/2000/svg">
<path d="M-2.72949 78.2349L13.3824 56.9616L32.1909 56.9616L51.7517 18.204L70.5601 9.69625L90.1209 4.0244L109.682 33.3289L128.49 22.9305L148.051 2.13379L166.859 29.5477L186.42 2.13379L205.981 42.782L224.789 43.7273L244.35 35.2195L263.159 61.6881L282.719 72.0865" stroke="#4535F6" stroke-width="2"/>
<path d="M-6.17822 72.0865L13.3826 54.1257L32.191 65.4694L51.7518 46.5632L70.5602 26.7118L90.121 41.8367L109.682 2.13379L128.49 16.3134L148.051 51.2898L166.859 49.3992L186.42 39.9461L205.981 39.9461L224.789 54.1257L244.35 70.1959L263.159 72.0865L282.719 72.0865" stroke="#FB4C5C" stroke-width="2"/>
<g filter="url(#filter0_d_338_56473)">
<path d="M164.684 10.811C164.684 8.6019 166.475 6.81104 168.684 6.81104L202.538 6.81103C204.747 6.81103 206.538 8.6019 206.538 10.811L206.538 26.8313C206.538 29.0404 204.747 30.8313 202.538 30.8313L191.59 30.8313L185.611 36.8364L179.632 30.8313L168.684 30.8313C166.475 30.8313 164.684 29.0404 164.684 26.8313L164.684 10.811Z" fill="#F7F4FD"/>
<path d="M191.59 30.3313L191.382 30.3313L191.236 30.4785L185.611 36.1277L179.986 30.4785L179.84 30.3313L179.632 30.3313L168.684 30.3313C166.751 30.3313 165.184 28.7643 165.184 26.8313L165.184 10.811C165.184 8.87804 166.751 7.31104 168.684 7.31104L202.538 7.31103C204.471 7.31103 206.038 8.87804 206.038 10.811L206.038 26.8313C206.038 28.7643 204.471 30.3313 202.538 30.3313L191.59 30.3313Z" stroke="#E8E0FF"/>
</g>
<path d="M178.121 24.8018L178.121 13.5218L178.721 13.5218L178.721 24.8018L178.121 24.8018ZM178.373 23.4338C177.749 23.4338 177.149 23.3338 176.573 23.1338C176.005 22.9258 175.565 22.6618 175.253 22.3418L175.601 21.6578C175.897 21.9458 176.293 22.1898 176.789 22.3898C177.293 22.5818 177.821 22.6778 178.373 22.6778C178.901 22.6778 179.329 22.6138 179.657 22.4858C179.993 22.3498 180.237 22.1698 180.389 21.9458C180.549 21.7218 180.629 21.4738 180.629 21.2018C180.629 20.8738 180.533 20.6098 180.341 20.4098C180.157 20.2098 179.913 20.0538 179.609 19.9418C179.305 19.8218 178.969 19.7178 178.601 19.6298C178.233 19.5418 177.865 19.4498 177.497 19.3538C177.129 19.2498 176.789 19.1138 176.477 18.9458C176.173 18.7778 175.925 18.5578 175.733 18.2858C175.549 18.0058 175.457 17.6418 175.457 17.1938C175.457 16.7778 175.565 16.3978 175.781 16.0538C176.005 15.7018 176.345 15.4218 176.801 15.2138C177.257 14.9978 177.841 14.8898 178.553 14.8898C179.025 14.8898 179.493 14.9578 179.957 15.0938C180.421 15.2218 180.821 15.4018 181.157 15.6338L180.857 16.3418C180.497 16.1018 180.113 15.9258 179.705 15.8138C179.305 15.7018 178.917 15.6458 178.541 15.6458C178.037 15.6458 177.621 15.7138 177.293 15.8498C176.965 15.9858 176.721 16.1698 176.561 16.4018C176.409 16.6258 176.333 16.8818 176.333 17.1698C176.333 17.4978 176.425 17.7618 176.609 17.9618C176.801 18.1618 177.049 18.3178 177.353 18.4298C177.665 18.5418 178.005 18.6418 178.373 18.7298C178.741 18.8178 179.105 18.9138 179.465 19.0178C179.833 19.1218 180.169 19.2578 180.473 19.4258C180.785 19.5858 181.033 19.8018 181.217 20.0738C181.409 20.3458 181.505 20.7018 181.505 21.1418C181.505 21.5498 181.393 21.9298 181.169 22.2818C180.945 22.6258 180.601 22.9058 180.137 23.1218C179.681 23.3298 179.093 23.4338 178.373 23.4338ZM182.94 23.3618L182.94 22.7498L186.432 19.3298C186.752 19.0178 186.992 18.7458 187.152 18.5138C187.312 18.2738 187.42 18.0498 187.476 17.8418C187.532 17.6338 187.56 17.4378 187.56 17.2538C187.56 16.7658 187.392 16.3818 187.056 16.1018C186.728 15.8218 186.24 15.6818 185.592 15.6818C185.096 15.6818 184.656 15.7578 184.272 15.9098C183.896 16.0618 183.572 16.2978 183.3 16.6178L182.688 16.0898C183.016 15.7058 183.436 15.4098 183.948 15.2018C184.46 14.9938 185.032 14.8898 185.664 14.8898C186.232 14.8898 186.724 14.9818 187.14 15.1658C187.556 15.3418 187.876 15.6018 188.1 15.9458C188.332 16.2898 188.448 16.6938 188.448 17.1578C188.448 17.4298 188.408 17.6978 188.328 17.9618C188.256 18.2258 188.12 18.5058 187.92 18.8018C187.728 19.0898 187.444 19.4178 187.068 19.7858L183.864 22.9298L183.624 22.5938L188.832 22.5938L188.832 23.3618L182.94 23.3618ZM192.968 23.4338C192.368 23.4338 191.796 23.3378 191.252 23.1458C190.708 22.9458 190.276 22.6818 189.956 22.3538L190.376 21.6698C190.64 21.9498 191 22.1818 191.456 22.3658C191.92 22.5498 192.42 22.6418 192.956 22.6418C193.668 22.6418 194.208 22.4858 194.576 22.1738C194.952 21.8538 195.14 21.4378 195.14 20.9258C195.14 20.5658 195.052 20.2578 194.876 20.0018C194.708 19.7378 194.42 19.5338 194.012 19.3898C193.604 19.2458 193.044 19.1738 192.332 19.1738L190.544 19.1738L190.976 14.9618L195.572 14.9618L195.572 15.7298L191.324 15.7298L191.768 15.3098L191.396 18.8378L190.952 18.4058L192.524 18.4058C193.372 18.4058 194.052 18.5098 194.564 18.7178C195.076 18.9258 195.444 19.2178 195.668 19.5938C195.9 19.9618 196.016 20.3938 196.016 20.8898C196.016 21.3618 195.904 21.7938 195.68 22.1858C195.456 22.5698 195.12 22.8738 194.672 23.0978C194.224 23.3218 193.656 23.4338 192.968 23.4338Z" fill="#232D42"/>
<defs>
<filter id="filter0_d_338_56473" x="154.684" y="2.81104" width="61.8535" height="50.0254" filterUnits="userSpaceOnUse" color-interpolation-filters="sRGB">
<feFlood flood-opacity="0" result="BackgroundImageFix"/>
<feColorMatrix in="SourceAlpha" type="matrix" values="0 0 0 0 0 0 0 0 0 0 0 0 0 0 0 0 0 0 127 0" result="hardAlpha"/>
<feOffset dy="6"/>
<feGaussianBlur stdDeviation="5"/>
<feColorMatrix type="matrix" values="0 0 0 0 0.863571 0 0 0 0 0.82875 0 0 0 0 0.975 0 0 0 0.4 0"/>
<feBlend mode="normal" in2="BackgroundImageFix" result="effect1_dropShadow_338_56473"/>
<feBlend mode="normal" in="SourceGraphic" in2="effect1_dropShadow_338_56473" result="shape"/>
</filter>
</defs>
</svg>
