<svg width="204" height="52" viewBox="0 0 204 52" fill="none" xmlns="http://www.w3.org/2000/svg">
<path d="M5.84302 48.6629C16.5275 48.6629 16.5275 32.9825 27.3188 32.9825C38.0032 32.9825 38.0032 26.9948 48.7945 26.9948C59.4789 26.9948 59.4789 4.98975 70.2702 4.98975C80.9547 4.98975 80.9547 16.1794 91.746 16.1794C102.43 16.1794 102.43 36.912 113.115 36.912C123.906 36.912 123.906 5.17686 134.591 5.17686C145.382 5.17686 145.382 40.093 156.066 40.093C166.858 40.093 166.858 36.0138 177.542 36.0138C188.333 36.0138 188.333 48.6629 199.018 48.6629" stroke="#4535F6" stroke-width="2"/>
<path d="M5.84302 48.6631C16.5275 48.6631 16.5275 37.01 27.3188 37.01C38.0032 37.01 38.0032 47.2204 48.7945 47.2204C59.4789 47.2204 59.4789 43.7799 70.2702 43.7799C80.9547 43.7799 80.9547 29.7222 91.746 29.7222C102.43 29.7222 102.43 13.4819 113.115 13.4819C123.906 13.4819 123.906 35.2713 134.591 35.2713C145.382 35.2713 145.382 27.6136 156.066 27.6136C166.858 27.6136 166.858 34.2355 177.542 34.2355C188.333 34.2355 188.333 48.6631 199.018 48.6631" stroke="#F25368" stroke-width="2"/>
<path d="M8.86747 48.6631C8.86747 49.502 8.23576 50.0894 7.56777 50.0894C6.89978 50.0894 6.26807 49.502 6.26807 48.6631C6.26807 47.8242 6.89978 47.2368 7.56777 47.2368C8.23576 47.2368 8.86747 47.8242 8.86747 48.6631Z" fill="white" stroke="#1F78B4" stroke-width="2"/>
<circle cx="28.8149" cy="32.7405" r="1.27465" fill="white" stroke="#4535F6" stroke-width="2"/>
<circle cx="50.6621" cy="26.675" r="1.27465" fill="white" stroke="#4535F6" stroke-width="2"/>
<circle cx="71.9343" cy="4.83812" r="1.27465" fill="white" stroke="#4535F6" stroke-width="2"/>
<circle cx="93.7815" cy="15.7566" r="1.27465" fill="white" stroke="#4535F6" stroke-width="2"/>
<path d="M116.378 36.5318C116.378 37.3706 115.747 37.958 115.079 37.958C114.411 37.958 113.779 37.3706 113.779 36.5318C113.779 35.6929 114.411 35.1055 115.079 35.1055C115.747 35.1055 116.378 35.6929 116.378 36.5318Z" fill="white" stroke="#4535F6" stroke-width="2"/>
<circle cx="136.326" cy="4.83812" r="1.27465" fill="white" stroke="#4535F6" stroke-width="2"/>
<circle cx="158.173" cy="39.4128" r="1.27465" fill="white" stroke="#4535F6" stroke-width="2"/>
<path d="M180.77 35.9248C180.77 36.7637 180.138 37.3511 179.47 37.3511C178.802 37.3511 178.171 36.7637 178.171 35.9248C178.171 35.0859 178.802 34.4985 179.47 34.4985C180.138 34.4985 180.77 35.0859 180.77 35.9248Z" fill="white" stroke="#4535F6" stroke-width="2"/>
<path d="M202.617 48.6631C202.617 49.502 201.986 50.0894 201.318 50.0894C200.65 50.0894 200.018 49.502 200.018 48.6631C200.018 47.8242 200.65 47.2368 201.318 47.2368C201.986 47.2368 202.617 47.8242 202.617 48.6631Z" fill="white" stroke="#4535F6" stroke-width="2"/>
<circle cx="7.54271" cy="48.5115" r="1.27465" fill="white" stroke="#F25368" stroke-width="2"/>
<circle cx="28.8149" cy="36.3801" r="1.27465" fill="white" stroke="#F25368" stroke-width="2"/>
<circle cx="50.6621" cy="46.6916" r="1.27465" fill="white" stroke="#F25368" stroke-width="2"/>
<circle cx="71.9343" cy="43.052" r="1.27465" fill="white" stroke="#F25368" stroke-width="2"/>
<circle cx="93.7815" cy="29.1013" r="1.27465" fill="white" stroke="#F25368" stroke-width="2"/>
<circle cx="115.054" cy="12.7239" r="1.27465" fill="white" stroke="#F25368" stroke-width="2"/>
<circle cx="136.326" cy="34.5603" r="1.27465" fill="white" stroke="#F25368" stroke-width="2"/>
<circle cx="158.173" cy="27.2815" r="1.27465" fill="white" stroke="#F25368" stroke-width="2"/>
<circle cx="179.445" cy="33.9538" r="1.27465" fill="white" stroke="#F25368" stroke-width="2"/>
<circle cx="201.292" cy="48.5115" r="1.27465" fill="white" stroke="#F25368" stroke-width="2"/>
<g filter="url(#filter0_d_338_56490)">
<path d="M10.7273 8.15771C10.7273 5.94857 12.5182 4.15771 14.7273 4.15771L43.1216 4.15771C45.3308 4.15771 47.1216 5.94858 47.1216 8.15771L47.1216 19.8107C47.1216 22.0198 45.3308 23.8107 43.1216 23.8107L34.1237 23.8107L28.9245 28.7239L23.7253 23.8107L14.7273 23.8107C12.5182 23.8107 10.7273 22.0198 10.7273 19.8107L10.7273 8.15771Z" fill="#F7F4FD"/>
<path d="M34.1237 23.3107L33.9248 23.3107L33.7802 23.4472L28.9245 28.036L24.0687 23.4472L23.9241 23.3107L23.7253 23.3107L14.7273 23.3107C12.7943 23.3107 11.2273 21.7437 11.2273 19.8107L11.2273 8.15771C11.2273 6.22472 12.7943 4.65771 14.7273 4.65771L43.1216 4.65771C45.0546 4.65771 46.6216 6.22472 46.6216 8.15771L46.6216 19.8107C46.6216 21.7437 45.0546 23.3107 43.1216 23.3107L34.1237 23.3107Z" stroke="#E8E0FF"/>
</g>
<path d="M24.2923 15.1992C24.2923 15.5325 24.209 15.8459 24.0423 16.1392C23.8823 16.4325 23.6423 16.6792 23.3223 16.8792C23.009 17.0792 22.6356 17.1992 22.2023 17.2392L22.2023 18.0492L21.5523 18.0492L21.5523 17.2392C20.9256 17.1792 20.419 16.9825 20.0323 16.6492C19.6456 16.3159 19.4523 15.8759 19.4523 15.3292L20.6723 15.3292C20.6923 15.5892 20.7756 15.8059 20.9223 15.9792C21.069 16.1459 21.279 16.2525 21.5523 16.2992L21.5523 14.0992C21.1056 13.9859 20.7423 13.8725 20.4623 13.7592C20.1823 13.6392 19.9423 13.4525 19.7423 13.1992C19.549 12.9459 19.4523 12.5992 19.4523 12.1592C19.4523 11.6059 19.6456 11.1492 20.0323 10.7892C20.419 10.4225 20.9256 10.2092 21.5523 10.1492L21.5523 9.3392L22.2023 9.3392L22.2023 10.1492C22.789 10.2025 23.259 10.3892 23.6123 10.7092C23.9723 11.0225 24.1756 11.4559 24.2223 12.0092L23.0023 12.0092C22.9823 11.8025 22.9023 11.6192 22.7623 11.4592C22.6223 11.2925 22.4356 11.1792 22.2023 11.1192L22.2023 13.2792C22.649 13.3859 23.0123 13.4992 23.2923 13.6192C23.5723 13.7325 23.809 13.9159 24.0023 14.1692C24.1956 14.4159 24.2923 14.7592 24.2923 15.1992ZM20.6123 12.0992C20.6123 12.3725 20.6923 12.5859 20.8523 12.7392C21.019 12.8925 21.2523 13.0159 21.5523 13.1092L21.5523 11.0892C21.2656 11.1225 21.0356 11.2259 20.8623 11.3992C20.6956 11.5725 20.6123 11.8059 20.6123 12.0992ZM22.2023 16.2992C22.4956 16.2525 22.7256 16.1359 22.8923 15.9492C23.059 15.7559 23.1423 15.5259 23.1423 15.2592C23.1423 14.9925 23.059 14.7859 22.8923 14.6392C22.7323 14.4859 22.5023 14.3625 22.2023 14.2692L22.2023 16.2992ZM26.9862 15.6292C27.6262 15.0759 28.1295 14.6225 28.4962 14.2692C28.8695 13.9092 29.1795 13.5359 29.4262 13.1492C29.6729 12.7625 29.7962 12.3759 29.7962 11.9892C29.7962 11.5892 29.6995 11.2759 29.5062 11.0492C29.3195 10.8225 29.0229 10.7092 28.6162 10.7092C28.2229 10.7092 27.9162 10.8359 27.6962 11.0892C27.4829 11.3359 27.3695 11.6692 27.3562 12.0892L26.2562 12.0892C26.2762 11.3292 26.5029 10.7492 26.9362 10.3492C27.3762 9.94253 27.9329 9.7392 28.6062 9.7392C29.3329 9.7392 29.8995 9.9392 30.3062 10.3392C30.7195 10.7392 30.9262 11.2725 30.9262 11.9392C30.9262 12.4192 30.8029 12.8825 30.5562 13.3292C30.3162 13.7692 30.0262 14.1659 29.6862 14.5192C29.3529 14.8659 28.9262 15.2692 28.4062 15.7292L27.9562 16.1292L31.1262 16.1292L31.1262 17.0792L26.2662 17.0792L26.2662 16.2492L26.9862 15.6292ZM37.2277 10.8692L33.8777 10.8692L33.8777 12.8592C34.0177 12.6725 34.2243 12.5159 34.4977 12.3892C34.7777 12.2625 35.0743 12.1992 35.3877 12.1992C35.9477 12.1992 36.401 12.3192 36.7477 12.5592C37.101 12.7992 37.351 13.1025 37.4977 13.4692C37.651 13.8359 37.7277 14.2225 37.7277 14.6292C37.7277 15.1225 37.631 15.5625 37.4377 15.9492C37.251 16.3292 36.9677 16.6292 36.5877 16.8492C36.2143 17.0692 35.7543 17.1792 35.2077 17.1792C34.481 17.1792 33.8977 16.9992 33.4577 16.6392C33.0177 16.2792 32.7543 15.8025 32.6677 15.2092L33.7777 15.2092C33.851 15.5225 34.0143 15.7725 34.2677 15.9592C34.521 16.1392 34.8377 16.2292 35.2177 16.2292C35.691 16.2292 36.0443 16.0859 36.2777 15.7992C36.5177 15.5125 36.6377 15.1325 36.6377 14.6592C36.6377 14.1792 36.5177 13.8125 36.2777 13.5592C36.0377 13.2992 35.6843 13.1692 35.2177 13.1692C34.891 13.1692 34.6143 13.2525 34.3877 13.4192C34.1677 13.5792 34.0077 13.7992 33.9077 14.0792L32.8277 14.0792L32.8277 9.8692L37.2277 9.8692L37.2277 10.8692Z" fill="#232D42"/>
<defs>
<filter id="filter0_d_338_56490" x="0.727295" y="0.157715" width="56.3943" height="44.5664" filterUnits="userSpaceOnUse" color-interpolation-filters="sRGB">
<feFlood flood-opacity="0" result="BackgroundImageFix"/>
<feColorMatrix in="SourceAlpha" type="matrix" values="0 0 0 0 0 0 0 0 0 0 0 0 0 0 0 0 0 0 127 0" result="hardAlpha"/>
<feOffset dy="6"/>
<feGaussianBlur stdDeviation="5"/>
<feColorMatrix type="matrix" values="0 0 0 0 0.863571 0 0 0 0 0.82875 0 0 0 0 0.975 0 0 0 0.4 0"/>
<feBlend mode="normal" in2="BackgroundImageFix" result="effect1_dropShadow_338_56490"/>
<feBlend mode="normal" in="SourceGraphic" in2="effect1_dropShadow_338_56490" result="shape"/>
</filter>
</defs>
</svg>
