<svg width="24" height="24" viewBox="0 0 24 24" fill="none" xmlns="http://www.w3.org/2000/svg">
<g clip-path="url(#clip0_338_55444)">
<path d="M12.0203 24C8.93565 23.9973 5.96985 22.8099 3.73564 20.6831C1.50144 18.5562 0.169533 15.6524 0.0150997 12.5716C-0.139334 9.49084 0.895501 6.46842 2.90581 4.1288C4.91612 1.78918 7.74831 0.311127 10.8172 0V4.86039C9.51227 5.08116 8.29323 5.65681 7.29365 6.52429C6.29406 7.39177 5.55249 8.51761 5.15017 9.77849C4.74785 11.0394 4.70029 12.3867 5.01271 13.6728C5.32513 14.9589 5.98547 16.1342 6.9214 17.07C7.85733 18.0058 9.03275 18.666 10.3189 18.9782C11.6051 19.2904 12.9523 19.2427 14.2132 18.8402C15.474 18.4377 16.5997 17.6959 17.4671 16.6962C18.3344 15.6965 18.9099 14.4774 19.1304 13.1724H23.9896C23.6875 16.1384 22.2964 18.887 20.0854 20.8869C17.8744 22.8868 15.0004 23.996 12.0191 24H12.0203ZM23.9908 10.7663H19.1304C18.8807 9.29048 18.1778 7.92903 17.1193 6.87076C16.0608 5.8125 14.6992 5.10989 13.2234 4.86039V0C15.9825 0.282207 18.5599 1.50699 20.5213 3.46792C22.4827 5.42886 23.708 8.00602 23.9908 10.7651V10.7663Z" fill="white"/>
</g>
<defs>
<clipPath id="clip0_338_55444">
<rect width="24" height="24" fill="white"/>
</clipPath>
</defs>
</svg>
