<svg width="241" height="241" viewBox="0 0 241 241" fill="none" xmlns="http://www.w3.org/2000/svg">
<circle cx="120.768" cy="120.178" r="41.7832" stroke="#F0F3F9" stroke-width="5.93856"/>
<path d="M200.122 120.178C200.122 164.004 164.594 199.532 120.769 199.532C76.943 199.532 41.4153 164.004 41.4153 120.178C41.4153 76.3529 76.943 40.8252 120.769 40.8252C164.594 40.8252 200.122 76.3529 200.122 120.178Z" stroke="#F0F3F9" stroke-width="5.93856"/>
<circle cx="120.769" cy="120.18" r="116.923" stroke="#F0F3F9" stroke-width="5.93856"/>
<mask id="path-4-inside-1_338_56430" fill="white">
<path d="M115.305 4.83435C115.19 2.39743 117.072 0.319797 119.511 0.294172C142.078 0.0571277 164.287 6.19579 183.563 18.0471C204.095 30.6706 220.346 49.1894 230.195 71.1875C240.044 93.1855 243.034 117.641 238.776 141.364C234.517 165.087 223.207 186.976 206.321 204.175C189.436 221.373 167.758 233.083 144.118 237.777C120.477 242.471 95.9703 239.93 73.7951 230.487C51.6199 221.044 32.8057 205.136 19.8071 184.839C7.60374 165.784 1.05816 143.692 0.880644 121.124C0.861454 118.685 2.90416 116.765 5.34279 116.835C7.78142 116.906 9.69183 118.941 9.71817 121.38C9.94267 142.171 16.0015 162.515 27.2469 180.075C39.2876 198.876 56.7154 213.611 77.2566 222.359C97.7977 231.106 120.498 233.459 142.397 229.112C164.296 224.764 184.376 213.916 200.017 197.985C215.658 182.054 226.135 161.778 230.08 139.803C234.025 117.828 231.255 95.1747 222.131 74.7977C213.008 54.4207 197.955 37.2665 178.936 25.5732C161.173 14.6522 140.721 8.96806 119.93 9.12551C117.49 9.14398 115.42 7.27127 115.305 4.83435Z"/>
</mask>
<path d="M115.305 4.83435C115.19 2.39743 117.072 0.319797 119.511 0.294172C142.078 0.0571277 164.287 6.19579 183.563 18.0471C204.095 30.6706 220.346 49.1894 230.195 71.1875C240.044 93.1855 243.034 117.641 238.776 141.364C234.517 165.087 223.207 186.976 206.321 204.175C189.436 221.373 167.758 233.083 144.118 237.777C120.477 242.471 95.9703 239.93 73.7951 230.487C51.6199 221.044 32.8057 205.136 19.8071 184.839C7.60374 165.784 1.05816 143.692 0.880644 121.124C0.861454 118.685 2.90416 116.765 5.34279 116.835C7.78142 116.906 9.69183 118.941 9.71817 121.38C9.94267 142.171 16.0015 162.515 27.2469 180.075C39.2876 198.876 56.7154 213.611 77.2566 222.359C97.7977 231.106 120.498 233.459 142.397 229.112C164.296 224.764 184.376 213.916 200.017 197.985C215.658 182.054 226.135 161.778 230.08 139.803C234.025 117.828 231.255 95.1747 222.131 74.7977C213.008 54.4207 197.955 37.2665 178.936 25.5732C161.173 14.6522 140.721 8.96806 119.93 9.12551C117.49 9.14398 115.42 7.27127 115.305 4.83435Z" stroke="#4535F6" stroke-width="11.8771" mask="url(#path-4-inside-1_338_56430)"/>
<mask id="path-5-inside-2_338_56430" fill="white">
<path d="M116.099 80.1129C115.817 77.6901 117.554 75.4742 119.993 75.432C124.794 75.3488 129.588 76.0389 134.188 77.4847C140.195 79.3729 145.736 82.5075 150.448 86.6837C155.161 90.8598 158.939 95.9835 161.537 101.72C164.134 107.456 165.491 113.676 165.52 119.973C165.549 126.269 164.249 132.501 161.704 138.261C159.16 144.021 155.428 149.179 150.754 153.398C146.08 157.618 140.568 160.803 134.578 162.746C129.992 164.234 125.205 164.968 120.403 164.929C117.964 164.909 116.207 162.709 116.467 160.284C116.727 157.859 118.908 156.132 121.347 156.093C124.908 156.035 128.449 155.448 131.853 154.344C136.66 152.785 141.084 150.228 144.836 146.841C148.587 143.455 151.582 139.315 153.624 134.692C155.667 130.069 156.71 125.067 156.687 120.013C156.664 114.959 155.574 109.967 153.49 105.363C151.405 100.759 148.373 96.6464 144.59 93.2945C140.808 89.9427 136.36 87.4267 131.539 85.9112C128.126 84.8383 124.579 84.2839 121.018 84.2592C118.578 84.2422 116.382 82.5357 116.099 80.1129Z"/>
</mask>
<path d="M116.099 80.1129C115.817 77.6901 117.554 75.4742 119.993 75.432C124.794 75.3488 129.588 76.0389 134.188 77.4847C140.195 79.3729 145.736 82.5075 150.448 86.6837C155.161 90.8598 158.939 95.9835 161.537 101.72C164.134 107.456 165.491 113.676 165.52 119.973C165.549 126.269 164.249 132.501 161.704 138.261C159.16 144.021 155.428 149.179 150.754 153.398C146.08 157.618 140.568 160.803 134.578 162.746C129.992 164.234 125.205 164.968 120.403 164.929C117.964 164.909 116.207 162.709 116.467 160.284C116.727 157.859 118.908 156.132 121.347 156.093C124.908 156.035 128.449 155.448 131.853 154.344C136.66 152.785 141.084 150.228 144.836 146.841C148.587 143.455 151.582 139.315 153.624 134.692C155.667 130.069 156.71 125.067 156.687 120.013C156.664 114.959 155.574 109.967 153.49 105.363C151.405 100.759 148.373 96.6464 144.59 93.2945C140.808 89.9427 136.36 87.4267 131.539 85.9112C128.126 84.8383 124.579 84.2839 121.018 84.2592C118.578 84.2422 116.382 82.5357 116.099 80.1129Z" stroke="#FCAE56" stroke-width="11.8771" mask="url(#path-5-inside-2_338_56430)"/>
<mask id="path-6-inside-3_338_56430" fill="white">
<path d="M115.467 42.4547C115.301 40.0203 117.141 37.8997 119.581 37.8645C132.126 37.6834 144.568 40.3727 155.947 45.7509C168.66 51.7595 179.621 60.9241 187.787 72.371C195.952 83.8179 201.05 97.1656 202.594 111.142C204.137 125.117 202.075 139.256 196.604 152.209C191.133 165.162 182.436 176.498 171.341 185.135C160.246 193.773 147.124 199.426 133.225 201.553C119.326 203.681 105.113 202.213 91.9427 197.289C80.1537 192.882 69.551 185.838 60.9337 176.719C59.2578 174.945 59.4953 172.148 61.3562 170.57C63.2171 168.991 65.9957 169.231 67.683 170.993C75.3159 178.967 84.6617 185.134 95.0368 189.012C106.794 193.407 119.481 194.718 131.888 192.819C144.295 190.919 156.009 185.874 165.913 178.163C175.817 170.452 183.581 160.333 188.464 148.771C193.348 137.208 195.188 124.587 193.811 112.112C192.433 99.6357 187.882 87.7208 180.593 77.5026C173.304 67.2843 163.519 59.1034 152.171 53.7398C142.157 49.0066 131.221 46.6065 120.182 46.6946C117.742 46.714 115.633 44.8891 115.467 42.4547Z"/>
</mask>
<path d="M115.467 42.4547C115.301 40.0203 117.141 37.8997 119.581 37.8645C132.126 37.6834 144.568 40.3727 155.947 45.7509C168.66 51.7595 179.621 60.9241 187.787 72.371C195.952 83.8179 201.05 97.1656 202.594 111.142C204.137 125.117 202.075 139.256 196.604 152.209C191.133 165.162 182.436 176.498 171.341 185.135C160.246 193.773 147.124 199.426 133.225 201.553C119.326 203.681 105.113 202.213 91.9427 197.289C80.1537 192.882 69.551 185.838 60.9337 176.719C59.2578 174.945 59.4953 172.148 61.3562 170.57C63.2171 168.991 65.9957 169.231 67.683 170.993C75.3159 178.967 84.6617 185.134 95.0368 189.012C106.794 193.407 119.481 194.718 131.888 192.819C144.295 190.919 156.009 185.874 165.913 178.163C175.817 170.452 183.581 160.333 188.464 148.771C193.348 137.208 195.188 124.587 193.811 112.112C192.433 99.6357 187.882 87.7208 180.593 77.5026C173.304 67.2843 163.519 59.1034 152.171 53.7398C142.157 49.0066 131.221 46.6065 120.182 46.6946C117.742 46.714 115.633 44.8891 115.467 42.4547Z" stroke="#DE287A" stroke-width="11.8771" mask="url(#path-6-inside-3_338_56430)"/>
</svg>
