<svg width="24" height="24" viewBox="0 0 24 24" fill="none" xmlns="http://www.w3.org/2000/svg">
<g clip-path="url(#clip0_338_55454)">
<path d="M4.34093 2.3182e-06H6.8508L4.33373 7.19849H0.000244141L3.26836 0.662263C3.36809 0.463232 3.52124 0.295876 3.71066 0.178917C3.90008 0.0619582 4.11831 9.78864e-06 4.34093 2.3182e-06ZM0.086626 9.59798L7.31871 20.8444L4.26895 9.59798H0.086626ZM6.75482 9.59798L10.4261 23.1431C10.4911 23.3888 10.6356 23.606 10.837 23.761C11.0383 23.916 11.2853 24 11.5394 24C11.7935 24 12.0405 23.916 12.2419 23.761C12.4433 23.606 12.5877 23.3888 12.6528 23.1431L16.3336 9.59798H6.75482ZM18.8195 9.59798L15.7625 20.8396L22.9922 9.59798H18.8171H18.8195ZM23.0786 7.19849H18.7523L16.2328 2.3182e-06H18.7379C18.9609 -0.00043604 19.1797 0.0613022 19.3696 0.178286C19.5594 0.295269 19.713 0.462867 19.8129 0.662263L23.0786 7.19849ZM16.2112 7.19849H6.8772L9.39187 2.3182e-06H13.687L16.2112 7.19849Z" fill="white"/>
</g>
<defs>
<clipPath id="clip0_338_55454">
<rect width="24" height="24" fill="white"/>
</clipPath>
</defs>
</svg>
