<svg width="279" height="12" viewBox="0 0 279 12" fill="none" xmlns="http://www.w3.org/2000/svg">
<path d="M28.6221 2.72776V10.0005H26.8642V2.72776H28.6221ZM31.5621 6.88969V10.0005H29.8256V4.54594H31.4769V5.54736H31.5372C31.658 5.21356 31.8639 4.95196 32.1551 4.76256C32.4463 4.5708 32.7931 4.47492 33.1956 4.47492C33.5791 4.47492 33.9117 4.56133 34.1935 4.73415C34.4776 4.90461 34.6977 5.14372 34.854 5.45148C35.0126 5.75688 35.0907 6.11436 35.0884 6.52393V10.0005H33.3519V6.86483C33.3542 6.5618 33.2773 6.32506 33.121 6.15461C32.9671 5.98415 32.7529 5.89893 32.4783 5.89893C32.296 5.89893 32.135 5.93917 31.9953 6.01966C31.858 6.09779 31.7515 6.21024 31.6757 6.35702C31.6023 6.5038 31.5644 6.68136 31.5621 6.88969ZM41.3593 4.54594L39.4879 10.0005H37.4993L35.6314 4.54594H37.4602L38.4652 8.30305H38.522L39.5305 4.54594H41.3593ZM44.4956 10.1035C43.9226 10.1035 43.4302 9.98628 43.0183 9.75191C42.6087 9.51517 42.2927 9.18609 42.0701 8.76469C41.85 8.34092 41.7399 7.84968 41.7399 7.29097C41.7399 6.72989 41.85 6.23865 42.0701 5.81725C42.2927 5.39348 42.6087 5.06441 43.0183 4.83003C43.4302 4.59329 43.9226 4.47492 44.4956 4.47492C45.0685 4.47492 45.5597 4.59329 45.9693 4.83003C46.3812 5.06441 46.6973 5.39348 46.9174 5.81725C47.14 6.23865 47.2512 6.72989 47.2512 7.29097C47.2512 7.84968 47.14 8.34092 46.9174 8.76469C46.6973 9.18609 46.3812 9.51517 45.9693 9.75191C45.5597 9.98628 45.0685 10.1035 44.4956 10.1035ZM44.5062 8.7931C44.7146 8.7931 44.8909 8.72918 45.0353 8.60134C45.1798 8.4735 45.2898 8.29594 45.3656 8.06867C45.4437 7.8414 45.4828 7.57861 45.4828 7.28032C45.4828 6.97729 45.4437 6.71214 45.3656 6.48486C45.2898 6.25759 45.1798 6.08003 45.0353 5.95219C44.8909 5.82435 44.7146 5.76043 44.5062 5.76043C44.2908 5.76043 44.1085 5.82435 43.9593 5.95219C43.8126 6.08003 43.7001 6.25759 43.622 6.48486C43.5462 6.71214 43.5083 6.97729 43.5083 7.28032C43.5083 7.57861 43.5462 7.8414 43.622 8.06867C43.7001 8.29594 43.8126 8.4735 43.9593 8.60134C44.1085 8.72918 44.2908 8.7931 44.5062 8.7931ZM48.2408 10.0005V4.54594H49.9773V10.0005H48.2408ZM49.1108 3.91029C48.867 3.91029 48.6575 3.8298 48.4823 3.66881C48.3071 3.50546 48.2195 3.30896 48.2195 3.07932C48.2195 2.85205 48.3071 2.65792 48.4823 2.49694C48.6575 2.33358 48.867 2.25191 49.1108 2.25191C49.357 2.25191 49.5666 2.33358 49.7394 2.49694C49.9146 2.65792 50.0022 2.85205 50.0022 3.07932C50.0022 3.30896 49.9146 3.50546 49.7394 3.66881C49.5666 3.8298 49.357 3.91029 49.1108 3.91029ZM53.7288 10.1035C53.1535 10.1035 52.6599 9.9851 52.2479 9.74836C51.8384 9.51162 51.5235 9.18254 51.3033 8.76114C51.0832 8.33737 50.9731 7.84732 50.9731 7.29097C50.9731 6.73226 51.0832 6.2422 51.3033 5.8208C51.5259 5.39703 51.8419 5.06678 52.2515 4.83003C52.6634 4.59329 53.1547 4.47492 53.7252 4.47492C54.2295 4.47492 54.6686 4.56607 55.0427 4.74836C55.4191 4.93065 55.7127 5.1887 55.9234 5.52251C56.1364 5.85394 56.2489 6.24339 56.2607 6.69083H54.6379C54.6047 6.41147 54.51 6.19249 54.3538 6.03387C54.1999 5.87525 53.9987 5.79594 53.7501 5.79594C53.5488 5.79594 53.3725 5.85276 53.221 5.9664C53.0694 6.07767 52.9511 6.24339 52.8658 6.46356C52.783 6.68136 52.7416 6.95125 52.7416 7.27322C52.7416 7.59519 52.783 7.86744 52.8658 8.08998C52.9511 8.31015 53.0694 8.47705 53.221 8.59069C53.3725 8.70196 53.5488 8.75759 53.7501 8.75759C53.9111 8.75759 54.0531 8.72326 54.1762 8.65461C54.3017 8.58595 54.4047 8.48534 54.4852 8.35276C54.5657 8.21782 54.6166 8.05447 54.6379 7.8627H56.2607C56.2442 8.31251 56.1317 8.70551 55.9234 9.04168C55.7174 9.37786 55.4274 9.63946 55.0533 9.82648C54.6817 10.0111 54.2401 10.1035 53.7288 10.1035ZM59.7991 10.1035C59.2286 10.1035 58.7361 9.99102 58.3218 9.76611C57.9099 9.53884 57.5927 9.21569 57.3701 8.79665C57.15 8.37525 57.0399 7.87454 57.0399 7.29452C57.0399 6.73108 57.1512 6.23865 57.3737 5.81725C57.5962 5.39348 57.9099 5.06441 58.3147 4.83003C58.7196 4.59329 59.1966 4.47492 59.7458 4.47492C60.1341 4.47492 60.4892 4.53529 60.8112 4.65603C61.1332 4.77677 61.4113 4.95551 61.6457 5.19225C61.8801 5.42899 62.0624 5.72137 62.1926 6.06938C62.3228 6.41502 62.3879 6.81157 62.3879 7.25901V7.69225H57.6471V6.68373H60.7721C60.7698 6.49907 60.726 6.33453 60.6407 6.19012C60.5555 6.04571 60.4383 5.93325 60.2892 5.85276C60.1424 5.7699 59.9731 5.72847 59.7814 5.72847C59.5872 5.72847 59.4132 5.77227 59.2593 5.85986C59.1055 5.94509 58.9835 6.06228 58.8936 6.21143C58.8036 6.35821 58.7563 6.52511 58.7515 6.71214V7.73841C58.7515 7.96095 58.7953 8.15626 58.8829 8.32435C58.9705 8.49007 59.0948 8.6191 59.2558 8.71143C59.4168 8.80376 59.6085 8.84992 59.8311 8.84992C59.985 8.84992 60.1246 8.82861 60.2501 8.786C60.3756 8.74339 60.4833 8.68065 60.5733 8.59779C60.6632 8.51493 60.7307 8.41313 60.7757 8.29239L62.3701 8.33856C62.3039 8.69604 62.1583 9.00735 61.9333 9.27251C61.7108 9.53529 61.4184 9.74007 61.0562 9.88685C60.694 10.0313 60.275 10.1035 59.7991 10.1035ZM68.1369 6.21143L66.5424 6.25404C66.5258 6.1404 66.4809 6.03979 66.4075 5.95219C66.3341 5.86223 66.2382 5.79239 66.1198 5.74268C66.0038 5.69059 65.8689 5.66455 65.715 5.66455C65.5138 5.66455 65.3421 5.7048 65.2001 5.78529C65.0604 5.86578 64.9917 5.97468 64.9941 6.11199C64.9917 6.21853 65.0344 6.31086 65.1219 6.38898C65.2119 6.46711 65.3717 6.52984 65.6014 6.57719L66.6525 6.77606C67.197 6.88022 67.6018 7.05305 67.867 7.29452C68.1345 7.536 68.2694 7.8556 68.2718 8.25333C68.2694 8.62738 68.1582 8.9529 67.938 9.22989C67.7202 9.50688 67.4219 9.72232 67.0431 9.8762C66.6643 10.0277 66.2311 10.1035 65.7434 10.1035C64.9645 10.1035 64.3502 9.94367 63.9004 9.62407C63.4529 9.3021 63.1972 8.87123 63.1333 8.33145L64.8485 8.28884C64.8864 8.4877 64.9846 8.63922 65.1433 8.74339C65.3019 8.84755 65.5043 8.89964 65.7505 8.89964C65.973 8.89964 66.1541 8.85821 66.2938 8.77535C66.4335 8.69249 66.5045 8.5824 66.5069 8.44509C66.5045 8.32198 66.4501 8.22374 66.3435 8.15035C66.237 8.07459 66.0701 8.0154 65.8428 7.97279L64.8911 7.79168C64.3443 7.69225 63.9371 7.50877 63.6695 7.24126C63.402 6.97137 63.2694 6.62809 63.2718 6.21143C63.2694 5.84684 63.3665 5.53553 63.563 5.27748C63.7595 5.01706 64.0389 4.8182 64.4011 4.68089C64.7633 4.54358 65.1906 4.47492 65.683 4.47492C66.4217 4.47492 67.0041 4.62999 67.4302 4.94012C67.8563 5.24788 68.0919 5.67165 68.1369 6.21143Z" fill="#7C89A9"/>
<circle cx="4.9725" cy="5.97299" r="4.9725" fill="#4535F6"/>
<path d="M113.073 10.0005V2.72776H116.077C116.622 2.72776 117.092 2.83429 117.487 3.04736C117.885 3.25806 118.191 3.55281 118.407 3.9316C118.622 4.30802 118.73 4.74599 118.73 5.24552C118.73 5.74741 118.62 6.18657 118.4 6.56299C118.182 6.93704 117.87 7.22705 117.466 7.43302C117.061 7.63898 116.58 7.74197 116.024 7.74197H114.17V6.35702H115.697C115.962 6.35702 116.184 6.31086 116.361 6.21853C116.541 6.1262 116.677 5.99717 116.77 5.83145C116.862 5.66337 116.908 5.46805 116.908 5.24552C116.908 5.02061 116.862 4.82648 116.77 4.66313C116.677 4.49741 116.541 4.36957 116.361 4.27961C116.181 4.18965 115.96 4.14466 115.697 4.14466H114.831V10.0005H113.073ZM123.215 7.64608V4.54594H124.948V10.0005H123.294V8.98486H123.237C123.116 9.31867 122.91 9.58382 122.619 9.78032C122.33 9.97445 121.981 10.0715 121.571 10.0715C121.2 10.0715 120.873 9.98628 120.591 9.81583C120.309 9.64537 120.09 9.40745 119.934 9.10205C119.778 8.79429 119.699 8.43444 119.696 8.02251V4.54594H121.433V7.6816C121.435 7.97752 121.513 8.21072 121.667 8.38117C121.821 8.55162 122.031 8.63685 122.296 8.63685C122.469 8.63685 122.624 8.59897 122.761 8.52322C122.901 8.44509 123.011 8.33264 123.091 8.18586C123.174 8.03671 123.215 7.85679 123.215 7.64608ZM126.154 10.0005V4.54594H127.84V5.54026H127.897C127.997 5.18041 128.159 4.91289 128.384 4.7377C128.609 4.56015 128.87 4.47137 129.169 4.47137C129.249 4.47137 129.332 4.47729 129.417 4.48912C129.502 4.49859 129.582 4.51398 129.655 4.53529V6.04452C129.572 6.01611 129.463 5.99362 129.328 5.97705C129.196 5.96048 129.077 5.95219 128.973 5.95219C128.767 5.95219 128.581 5.99836 128.416 6.09069C128.252 6.18065 128.123 6.30731 128.029 6.47066C127.936 6.63164 127.89 6.82104 127.89 7.03884V10.0005H126.154ZM132.726 10.1035C132.15 10.1035 131.657 9.9851 131.245 9.74836C130.835 9.51162 130.52 9.18254 130.3 8.76114C130.08 8.33737 129.97 7.84732 129.97 7.29097C129.97 6.73226 130.08 6.2422 130.3 5.8208C130.523 5.39703 130.839 5.06678 131.248 4.83003C131.66 4.59329 132.152 4.47492 132.722 4.47492C133.226 4.47492 133.666 4.56607 134.04 4.74836C134.416 4.93065 134.71 5.1887 134.92 5.52251C135.133 5.85394 135.246 6.24339 135.258 6.69083H133.635C133.602 6.41147 133.507 6.19249 133.351 6.03387C133.197 5.87525 132.996 5.79594 132.747 5.79594C132.546 5.79594 132.369 5.85276 132.218 5.9664C132.066 6.07767 131.948 6.24339 131.863 6.46356C131.78 6.68136 131.738 6.95125 131.738 7.27322C131.738 7.59519 131.78 7.86744 131.863 8.08998C131.948 8.31015 132.066 8.47705 132.218 8.59069C132.369 8.70196 132.546 8.75759 132.747 8.75759C132.908 8.75759 133.05 8.72326 133.173 8.65461C133.299 8.58595 133.402 8.48534 133.482 8.35276C133.563 8.21782 133.613 8.05447 133.635 7.8627H135.258C135.241 8.31251 135.129 8.70551 134.92 9.04168C134.714 9.37786 134.424 9.63946 134.05 9.82648C133.679 10.0111 133.237 10.1035 132.726 10.1035ZM137.983 6.88969V10.0005H136.246V2.72776H137.926V5.54736H137.986C138.109 5.21119 138.311 4.9484 138.59 4.75901C138.872 4.56962 139.216 4.47492 139.623 4.47492C140.007 4.47492 140.341 4.56015 140.625 4.7306C140.909 4.89869 141.129 5.13662 141.285 5.44438C141.444 5.75215 141.522 6.11199 141.52 6.52393V10.0005H139.783V6.86483C139.786 6.5618 139.71 6.32506 139.556 6.15461C139.402 5.98415 139.185 5.89893 138.906 5.89893C138.724 5.89893 138.563 5.93917 138.423 6.01966C138.286 6.09779 138.178 6.21024 138.1 6.35702C138.024 6.5038 137.985 6.68136 137.983 6.88969ZM144.241 10.0928C143.893 10.0928 143.584 10.0348 143.314 9.91881C143.047 9.80044 142.835 9.62288 142.679 9.38614C142.525 9.14703 142.448 8.84755 142.448 8.4877C142.448 8.18467 142.501 7.92899 142.608 7.72066C142.714 7.51233 142.861 7.34305 143.048 7.21285C143.235 7.08264 143.451 6.98439 143.694 6.9181C143.938 6.84945 144.199 6.80328 144.476 6.77961C144.786 6.7512 145.036 6.72161 145.225 6.69083C145.414 6.65769 145.552 6.61152 145.637 6.55233C145.725 6.49078 145.768 6.40437 145.768 6.2931V6.27535C145.768 6.09305 145.706 5.95219 145.58 5.85276C145.455 5.75333 145.285 5.70361 145.072 5.70361C144.843 5.70361 144.658 5.75333 144.518 5.85276C144.379 5.95219 144.29 6.0895 144.252 6.26469L142.65 6.20787C142.698 5.87644 142.82 5.58051 143.016 5.32009C143.215 5.05731 143.487 4.85134 143.833 4.70219C144.181 4.55068 144.599 4.47492 145.087 4.47492C145.435 4.47492 145.755 4.51635 146.049 4.59921C146.342 4.6797 146.598 4.79807 146.816 4.95432C147.034 5.10821 147.202 5.2976 147.32 5.52251C147.441 5.74741 147.501 6.00428 147.501 6.2931V10.0005H145.868V9.24055H145.825C145.728 9.4252 145.604 9.58145 145.452 9.7093C145.303 9.83714 145.127 9.93302 144.923 9.99694C144.722 10.0609 144.495 10.0928 144.241 10.0928ZM144.778 8.95645C144.965 8.95645 145.133 8.91858 145.282 8.84282C145.433 8.76706 145.554 8.66289 145.644 8.53032C145.734 8.39537 145.779 8.23912 145.779 8.06157V7.5431C145.729 7.56914 145.669 7.59282 145.598 7.61412C145.529 7.63543 145.453 7.65555 145.371 7.67449C145.288 7.69343 145.203 7.71001 145.115 7.72421C145.027 7.73841 144.943 7.75144 144.863 7.76327C144.699 7.78931 144.56 7.82956 144.444 7.88401C144.33 7.93846 144.243 8.00948 144.181 8.09708C144.122 8.18231 144.092 8.28411 144.092 8.40248C144.092 8.5824 144.156 8.71971 144.284 8.81441C144.414 8.90911 144.579 8.95645 144.778 8.95645ZM153.425 6.21143L151.831 6.25404C151.814 6.1404 151.769 6.03979 151.696 5.95219C151.622 5.86223 151.526 5.79239 151.408 5.74268C151.292 5.69059 151.157 5.66455 151.003 5.66455C150.802 5.66455 150.63 5.7048 150.488 5.78529C150.349 5.86578 150.28 5.97468 150.282 6.11199C150.28 6.21853 150.323 6.31086 150.41 6.38898C150.5 6.46711 150.66 6.52984 150.89 6.57719L151.941 6.77606C152.485 6.88022 152.89 7.05305 153.155 7.29452C153.423 7.536 153.558 7.8556 153.56 8.25333C153.558 8.62738 153.446 8.9529 153.226 9.22989C153.008 9.50688 152.71 9.72232 152.331 9.8762C151.953 10.0277 151.519 10.1035 151.032 10.1035C150.253 10.1035 149.638 9.94367 149.189 9.62407C148.741 9.3021 148.486 8.87123 148.422 8.33145L150.137 8.28884C150.175 8.4877 150.273 8.63922 150.432 8.74339C150.59 8.84755 150.793 8.89964 151.039 8.89964C151.261 8.89964 151.442 8.85821 151.582 8.77535C151.722 8.69249 151.793 8.5824 151.795 8.44509C151.793 8.32198 151.738 8.22374 151.632 8.15035C151.525 8.07459 151.358 8.0154 151.131 7.97279L150.179 7.79168C149.633 7.69225 149.225 7.50877 148.958 7.24126C148.69 6.97137 148.558 6.62809 148.56 6.21143C148.558 5.84684 148.655 5.53553 148.851 5.27748C149.048 5.01706 149.327 4.8182 149.689 4.68089C150.052 4.54358 150.479 4.47492 150.971 4.47492C151.71 4.47492 152.292 4.62999 152.718 4.94012C153.145 5.24788 153.38 5.67165 153.425 6.21143ZM157.065 10.1035C156.494 10.1035 156.002 9.99102 155.587 9.76611C155.176 9.53884 154.858 9.21569 154.636 8.79665C154.416 8.37525 154.306 7.87454 154.306 7.29452C154.306 6.73108 154.417 6.23865 154.639 5.81725C154.862 5.39348 155.176 5.06441 155.58 4.83003C155.985 4.59329 156.462 4.47492 157.011 4.47492C157.4 4.47492 157.755 4.53529 158.077 4.65603C158.399 4.77677 158.677 4.95551 158.911 5.19225C159.146 5.42899 159.328 5.72137 159.458 6.06938C159.588 6.41502 159.654 6.81157 159.654 7.25901V7.69225H154.913V6.68373H158.038C158.035 6.49907 157.992 6.33453 157.906 6.19012C157.821 6.04571 157.704 5.93325 157.555 5.85276C157.408 5.7699 157.239 5.72847 157.047 5.72847C156.853 5.72847 156.679 5.77227 156.525 5.85986C156.371 5.94509 156.249 6.06228 156.159 6.21143C156.069 6.35821 156.022 6.52511 156.017 6.71214V7.73841C156.017 7.96095 156.061 8.15626 156.149 8.32435C156.236 8.49007 156.36 8.6191 156.521 8.71143C156.682 8.80376 156.874 8.84992 157.097 8.84992C157.251 8.84992 157.39 8.82861 157.516 8.786C157.641 8.74339 157.749 8.68065 157.839 8.59779C157.929 8.51493 157.996 8.41313 158.041 8.29239L159.636 8.33856C159.569 8.69604 159.424 9.00735 159.199 9.27251C158.976 9.53529 158.684 9.74007 158.322 9.88685C157.96 10.0313 157.541 10.1035 157.065 10.1035ZM169.753 6.36412C169.753 7.16431 169.599 7.84258 169.292 8.39893C168.984 8.95527 168.567 9.37786 168.042 9.66668C167.518 9.95551 166.931 10.0999 166.28 10.0999C165.627 10.0999 165.038 9.95432 164.515 9.66313C163.992 9.37194 163.577 8.94935 163.269 8.39537C162.963 7.83903 162.811 7.16195 162.811 6.36412C162.811 5.56394 162.963 4.88567 163.269 4.32932C163.577 3.77298 163.992 3.35039 164.515 3.06157C165.038 2.77274 165.627 2.62833 166.28 2.62833C166.931 2.62833 167.518 2.77274 168.042 3.06157C168.567 3.35039 168.984 3.77298 169.292 4.32932C169.599 4.88567 169.753 5.56394 169.753 6.36412ZM167.956 6.36412C167.956 5.89064 167.889 5.49055 167.754 5.16384C167.621 4.83714 167.43 4.58974 167.179 4.42165C166.93 4.25357 166.631 4.16952 166.28 4.16952C165.932 4.16952 165.633 4.25357 165.382 4.42165C165.131 4.58974 164.938 4.83714 164.803 5.16384C164.67 5.49055 164.604 5.89064 164.604 6.36412C164.604 6.83761 164.67 7.2377 164.803 7.56441C164.938 7.89111 165.131 8.13851 165.382 8.3066C165.633 8.47468 165.932 8.55873 166.28 8.55873C166.631 8.55873 166.93 8.47468 167.179 8.3066C167.43 8.13851 167.621 7.89111 167.754 7.56441C167.889 7.2377 167.956 6.83761 167.956 6.36412ZM170.879 10.0005V4.54594H172.566V5.54026H172.623C172.723 5.18041 172.885 4.91289 173.11 4.7377C173.334 4.56015 173.596 4.47137 173.894 4.47137C173.975 4.47137 174.058 4.47729 174.143 4.48912C174.228 4.49859 174.308 4.51398 174.381 4.53529V6.04452C174.298 6.01611 174.189 5.99362 174.054 5.97705C173.922 5.96048 173.803 5.95219 173.699 5.95219C173.493 5.95219 173.307 5.99836 173.142 6.09069C172.978 6.18065 172.849 6.30731 172.754 6.47066C172.662 6.63164 172.616 6.82104 172.616 7.03884V10.0005H170.879ZM176.897 10.0786C176.495 10.0786 176.129 9.97445 175.8 9.76611C175.471 9.55778 175.208 9.24528 175.012 8.82861C174.815 8.41195 174.717 7.89466 174.717 7.27677C174.717 6.63519 174.819 6.10726 175.022 5.69296C175.226 5.27866 175.492 4.97208 175.821 4.77322C176.153 4.57435 176.509 4.47492 176.89 4.47492C177.177 4.47492 177.422 4.52464 177.625 4.62407C177.829 4.72113 177.997 4.84661 178.13 5.00049C178.262 5.15437 178.363 5.31417 178.432 5.47989H178.467V2.72776H180.204V10.0005H178.485V9.11626H178.432C178.358 9.28434 178.254 9.44178 178.119 9.58856C177.984 9.73534 177.815 9.85371 177.611 9.94367C177.41 10.0336 177.172 10.0786 176.897 10.0786ZM177.501 8.72563C177.712 8.72563 177.892 8.66644 178.041 8.54807C178.19 8.42733 178.305 8.25806 178.385 8.04026C178.466 7.82246 178.506 7.56678 178.506 7.27322C178.506 6.97492 178.466 6.71805 178.385 6.50262C178.307 6.28718 178.192 6.12146 178.041 6.00546C177.892 5.88946 177.712 5.83145 177.501 5.83145C177.286 5.83145 177.103 5.89064 176.954 6.00901C176.805 6.12738 176.691 6.29429 176.613 6.50972C176.538 6.72516 176.5 6.97965 176.5 7.27322C176.5 7.56678 176.539 7.82246 176.617 8.04026C176.695 8.25806 176.807 8.42733 176.954 8.54807C177.103 8.66644 177.286 8.72563 177.501 8.72563ZM183.951 10.1035C183.381 10.1035 182.888 9.99102 182.474 9.76611C182.062 9.53884 181.745 9.21569 181.522 8.79665C181.302 8.37525 181.192 7.87454 181.192 7.29452C181.192 6.73108 181.303 6.23865 181.526 5.81725C181.749 5.39348 182.062 5.06441 182.467 4.83003C182.872 4.59329 183.349 4.47492 183.898 4.47492C184.286 4.47492 184.642 4.53529 184.964 4.65603C185.286 4.77677 185.564 4.95551 185.798 5.19225C186.032 5.42899 186.215 5.72137 186.345 6.06938C186.475 6.41502 186.54 6.81157 186.54 7.25901V7.69225H181.799V6.68373H184.924C184.922 6.49907 184.878 6.33453 184.793 6.19012C184.708 6.04571 184.591 5.93325 184.442 5.85276C184.295 5.7699 184.125 5.72847 183.934 5.72847C183.74 5.72847 183.566 5.77227 183.412 5.85986C183.258 5.94509 183.136 6.06228 183.046 6.21143C182.956 6.35821 182.909 6.52511 182.904 6.71214V7.73841C182.904 7.96095 182.948 8.15626 183.035 8.32435C183.123 8.49007 183.247 8.6191 183.408 8.71143C183.569 8.80376 183.761 8.84992 183.983 8.84992C184.137 8.84992 184.277 8.82861 184.402 8.786C184.528 8.74339 184.636 8.68065 184.726 8.59779C184.816 8.51493 184.883 8.41313 184.928 8.29239L186.522 8.33856C186.456 8.69604 186.311 9.00735 186.086 9.27251C185.863 9.53529 185.571 9.74007 185.209 9.88685C184.846 10.0313 184.427 10.1035 183.951 10.1035ZM187.527 10.0005V4.54594H189.214V5.54026H189.271C189.37 5.18041 189.532 4.91289 189.757 4.7377C189.982 4.56015 190.244 4.47137 190.542 4.47137C190.623 4.47137 190.705 4.47729 190.791 4.48912C190.876 4.49859 190.955 4.51398 191.029 4.53529V6.04452C190.946 6.01611 190.837 5.99362 190.702 5.97705C190.569 5.96048 190.451 5.95219 190.347 5.95219C190.141 5.95219 189.955 5.99836 189.789 6.09069C189.626 6.18065 189.497 6.30731 189.402 6.47066C189.31 6.63164 189.264 6.82104 189.264 7.03884V10.0005H187.527ZM196.598 6.21143L195.004 6.25404C194.987 6.1404 194.942 6.03979 194.869 5.95219C194.795 5.86223 194.7 5.79239 194.581 5.74268C194.465 5.69059 194.33 5.66455 194.176 5.66455C193.975 5.66455 193.803 5.7048 193.661 5.78529C193.522 5.86578 193.453 5.97468 193.455 6.11199C193.453 6.21853 193.496 6.31086 193.583 6.38898C193.673 6.46711 193.833 6.52984 194.063 6.57719L195.114 6.77606C195.658 6.88022 196.063 7.05305 196.328 7.29452C196.596 7.536 196.731 7.8556 196.733 8.25333C196.731 8.62738 196.619 8.9529 196.399 9.22989C196.182 9.50688 195.883 9.72232 195.504 9.8762C195.126 10.0277 194.692 10.1035 194.205 10.1035C193.426 10.1035 192.811 9.94367 192.362 9.62407C191.914 9.3021 191.659 8.87123 191.595 8.33145L193.31 8.28884C193.348 8.4877 193.446 8.63922 193.605 8.74339C193.763 8.84755 193.966 8.89964 194.212 8.89964C194.434 8.89964 194.615 8.85821 194.755 8.77535C194.895 8.69249 194.966 8.5824 194.968 8.44509C194.966 8.32198 194.911 8.22374 194.805 8.15035C194.698 8.07459 194.531 8.0154 194.304 7.97279L193.352 7.79168C192.806 7.69225 192.398 7.50877 192.131 7.24126C191.863 6.97137 191.731 6.62809 191.733 6.21143C191.731 5.84684 191.828 5.53553 192.024 5.27748C192.221 5.01706 192.5 4.8182 192.862 4.68089C193.225 4.54358 193.652 4.47492 194.144 4.47492C194.883 4.47492 195.465 4.62999 195.892 4.94012C196.318 5.24788 196.553 5.67165 196.598 6.21143Z" fill="#7C89A9"/>
<circle cx="91.3075" cy="5.97299" r="4.9725" fill="#DE287A"/>
<path d="M242.297 10.0005V2.72776H245.302C245.846 2.72776 246.316 2.82601 246.711 3.02251C247.109 3.21663 247.416 3.49599 247.631 3.86057C247.846 4.22279 247.954 4.65248 247.954 5.14964C247.954 5.6539 247.844 6.0824 247.624 6.43515C247.404 6.78553 247.091 7.05305 246.686 7.2377C246.282 7.42 245.802 7.51114 245.248 7.51114H243.348V6.1262H244.922C245.187 6.1262 245.408 6.09187 245.586 6.02322C245.766 5.95219 245.902 5.84566 245.994 5.70361C246.086 5.5592 246.132 5.37454 246.132 5.14964C246.132 4.92473 246.086 4.73889 245.994 4.59211C245.902 4.44296 245.766 4.33169 245.586 4.2583C245.406 4.18254 245.184 4.14466 244.922 4.14466H244.055V10.0005H242.297ZM246.392 6.67662L248.203 10.0005H246.285L244.51 6.67662H246.392ZM251.461 10.1035C250.89 10.1035 250.398 9.99102 249.983 9.76611C249.571 9.53884 249.254 9.21569 249.032 8.79665C248.811 8.37525 248.701 7.87454 248.701 7.29452C248.701 6.73108 248.813 6.23865 249.035 5.81725C249.258 5.39348 249.571 5.06441 249.976 4.83003C250.381 4.59329 250.858 4.47492 251.407 4.47492C251.796 4.47492 252.151 4.53529 252.473 4.65603C252.795 4.77677 253.073 4.95551 253.307 5.19225C253.542 5.42899 253.724 5.72137 253.854 6.06938C253.984 6.41502 254.049 6.81157 254.049 7.25901V7.69225H249.309V6.68373H252.434C252.431 6.49907 252.387 6.33453 252.302 6.19012C252.217 6.04571 252.1 5.93325 251.951 5.85276C251.804 5.7699 251.635 5.72847 251.443 5.72847C251.249 5.72847 251.075 5.77227 250.921 5.85986C250.767 5.94509 250.645 6.06228 250.555 6.21143C250.465 6.35821 250.418 6.52511 250.413 6.71214V7.73841C250.413 7.96095 250.457 8.15626 250.544 8.32435C250.632 8.49007 250.756 8.6191 250.917 8.71143C251.078 8.80376 251.27 8.84992 251.493 8.84992C251.646 8.84992 251.786 8.82861 251.912 8.786C252.037 8.74339 252.145 8.68065 252.235 8.59779C252.325 8.51493 252.392 8.41313 252.437 8.29239L254.032 8.33856C253.965 8.69604 253.82 9.00735 253.595 9.27251C253.372 9.53529 253.08 9.74007 252.718 9.88685C252.356 10.0313 251.936 10.1035 251.461 10.1035ZM258.136 4.54594V5.82435H254.628V4.54594H258.136ZM255.359 10.0005V4.26895C255.359 3.84755 255.439 3.49836 255.597 3.22137C255.756 2.94201 255.976 2.73368 256.258 2.59637C256.54 2.45669 256.865 2.38685 257.234 2.38685C257.476 2.38685 257.703 2.40579 257.916 2.44367C258.132 2.47918 258.292 2.51114 258.396 2.53955L258.119 3.81086C258.055 3.78955 257.977 3.77179 257.884 3.75759C257.794 3.74339 257.709 3.73628 257.629 3.73628C257.425 3.73628 257.285 3.78126 257.21 3.87123C257.134 3.96119 257.096 4.0843 257.096 4.24055V10.0005H255.359ZM262.591 7.64608V4.54594H264.324V10.0005H262.669V8.98486H262.612C262.492 9.31867 262.286 9.58382 261.994 9.78032C261.706 9.97445 261.356 10.0715 260.947 10.0715C260.575 10.0715 260.248 9.98628 259.967 9.81583C259.685 9.64537 259.466 9.40745 259.31 9.10205C259.154 8.79429 259.074 8.43444 259.072 8.02251V4.54594H260.808V7.6816C260.811 7.97752 260.889 8.21072 261.043 8.38117C261.197 8.55162 261.406 8.63685 261.671 8.63685C261.844 8.63685 261.999 8.59897 262.136 8.52322C262.276 8.44509 262.386 8.33264 262.467 8.18586C262.55 8.03671 262.591 7.85679 262.591 7.64608ZM267.266 6.88969V10.0005H265.529V4.54594H267.181V5.54736H267.241C267.362 5.21356 267.568 4.95196 267.859 4.76256C268.15 4.5708 268.497 4.47492 268.899 4.47492C269.283 4.47492 269.615 4.56133 269.897 4.73415C270.181 4.90461 270.401 5.14372 270.558 5.45148C270.716 5.75688 270.794 6.11436 270.792 6.52393V10.0005H269.056V6.86483C269.058 6.5618 268.981 6.32506 268.825 6.15461C268.671 5.98415 268.457 5.89893 268.182 5.89893C268 5.89893 267.839 5.93917 267.699 6.01966C267.562 6.09779 267.455 6.21024 267.379 6.35702C267.306 6.5038 267.268 6.68136 267.266 6.88969ZM273.959 10.0786C273.557 10.0786 273.191 9.97445 272.862 9.76611C272.533 9.55778 272.27 9.24528 272.074 8.82861C271.877 8.41195 271.779 7.89466 271.779 7.27677C271.779 6.63519 271.881 6.10726 272.084 5.69296C272.288 5.27866 272.554 4.97208 272.883 4.77322C273.215 4.57435 273.571 4.47492 273.952 4.47492C274.239 4.47492 274.484 4.52464 274.687 4.62407C274.891 4.72113 275.059 4.84661 275.192 5.00049C275.324 5.15437 275.425 5.31417 275.493 5.47989H275.529V2.72776H277.265V10.0005H275.547V9.11626H275.493C275.42 9.28434 275.316 9.44178 275.181 9.58856C275.046 9.73534 274.877 9.85371 274.673 9.94367C274.472 10.0336 274.234 10.0786 273.959 10.0786ZM274.563 8.72563C274.774 8.72563 274.954 8.66644 275.103 8.54807C275.252 8.42733 275.367 8.25806 275.447 8.04026C275.528 7.82246 275.568 7.56678 275.568 7.27322C275.568 6.97492 275.528 6.71805 275.447 6.50262C275.369 6.28718 275.254 6.12146 275.103 6.00546C274.954 5.88946 274.774 5.83145 274.563 5.83145C274.348 5.83145 274.165 5.89064 274.016 6.00901C273.867 6.12738 273.753 6.29429 273.675 6.50972C273.6 6.72516 273.562 6.97965 273.562 7.27322C273.562 7.56678 273.601 7.82246 273.679 8.04026C273.757 8.25806 273.869 8.42733 274.016 8.54807C274.165 8.66644 274.348 8.72563 274.563 8.72563Z" fill="#7C89A9"/>
<circle cx="220.307" cy="5.97299" r="4.9725" fill="#FCAE56"/>
</svg>
