<svg width="26" height="21" viewBox="0 0 26 21" fill="none" xmlns="http://www.w3.org/2000/svg">
<g clip-path="url(#clip0_338_55315)">
<path d="M25.5 2.5571C24.5801 2.9768 23.5916 3.26045 22.5541 3.38806C23.6132 2.73495 24.4264 1.70073 24.8093 0.468457C23.8025 1.08317 22.701 1.51627 21.5523 1.74906C20.6167 0.723472 19.2838 0.0825195 17.8085 0.0825195C14.9759 0.0825195 12.6793 2.44537 12.6793 5.35965C12.6793 5.77332 12.7247 6.17604 12.8121 6.56238C8.54941 6.34223 4.77012 4.24132 2.24033 1.04852C1.79893 1.82793 1.546 2.73455 1.546 3.70155C1.546 5.53247 2.45156 7.14766 3.82773 8.09407C3.01323 8.06782 2.21665 7.84148 1.50449 7.43393C1.5042 7.45603 1.5042 7.47814 1.5042 7.50034C1.5042 10.0572 3.27217 12.1902 5.61846 12.675C4.86317 12.8863 4.07093 12.9173 3.30225 12.7654C3.95488 14.862 5.84912 16.3877 8.09346 16.4304C6.33809 17.8457 4.12646 18.6894 1.72354 18.6894C1.30947 18.6894 0.90127 18.6644 0.5 18.6157C2.76982 20.113 5.46582 20.9867 8.3623 20.9867C17.7966 20.9867 22.9555 12.9453 22.9555 5.97166C22.9555 5.74277 22.9506 5.51519 22.9406 5.28891C23.9448 4.54204 24.8114 3.61696 25.5 2.5571Z" fill="white"/>
</g>
<defs>
<clipPath id="clip0_338_55315">
<rect width="25" height="21" fill="white" transform="translate(0.5)"/>
</clipPath>
</defs>
</svg>
