<svg width="25" height="24" viewBox="0 0 25 24" fill="none" xmlns="http://www.w3.org/2000/svg">
<g clip-path="url(#clip0_338_55317)">
<path d="M20.9481 20.449H17.3921V14.8799C17.3921 13.552 17.3684 11.8424 15.5426 11.8424C13.6905 11.8424 13.4071 13.2894 13.4071 14.7833V20.4486H9.85115V8.99648H13.2649V10.5615H13.3127C13.6543 9.97739 14.148 9.49683 14.7411 9.17105C15.3343 8.84528 16.0047 8.68648 16.6809 8.71157C20.2851 8.71157 20.9496 11.0823 20.9496 14.1665L20.9481 20.449ZM5.83865 7.43113C4.69893 7.43132 3.77484 6.50751 3.77465 5.36779C3.77446 4.22807 4.69818 3.30398 5.8379 3.30379C6.97762 3.30351 7.90171 4.22732 7.9019 5.36704C7.902 5.91436 7.68468 6.4393 7.29775 6.82639C6.91082 7.21348 6.38596 7.43101 5.83865 7.43113ZM7.61671 20.4491H4.05693V8.99648H7.61662V20.449L7.61671 20.4491ZM22.721 0.00125846H2.27005C1.30349 -0.00961654 0.510836 0.764665 0.499023 1.73123V22.2674C0.510461 23.2345 1.30302 24.0095 2.26996 23.9994H22.721C23.69 24.0114 24.4856 23.2364 24.499 22.2674V1.72963C24.4852 0.761196 23.6895 -0.0129915 22.721 -0.000335291" fill="white"/>
</g>
<defs>
<clipPath id="clip0_338_55317">
<rect width="24" height="24" fill="white" transform="translate(0.5)"/>
</clipPath>
</defs>
</svg>
