<svg width="103" height="72" viewBox="0 0 103 72" fill="none" xmlns="http://www.w3.org/2000/svg">
<path d="M1.20557 65.1434C2.60429 63.3667 6.6606 59.8133 11.696 59.8133C17.9903 59.8133 15.4726 70.4735 21.7668 70.4735C28.0611 70.4735 24.7042 29.1652 31.8377 29.1652C38.9712 29.1652 33.5161 43.823 41.9085 43.823C50.3009 43.823 44.0066 59.8133 51.9793 59.8133C59.9521 59.8133 54.497 29.1652 62.0502 29.1652C69.6033 29.1652 63.7286 1.18213 72.121 1.18213C80.5134 1.18213 73.3798 22.5025 82.1918 22.5025C91.0038 22.5025 83.0311 56.482 92.2627 56.482C101.494 56.482 96.8785 43.823 102.333 43.823" stroke="#4535F6" stroke-width="2"/>
</svg>
