<svg width="57" height="40" viewBox="0 0 57 40" fill="none" xmlns="http://www.w3.org/2000/svg">
<path d="M1.82 26V6.83801H6.578L11.518 18.486L16.458 6.83801H21.19V26H16.666V15.47L12.662 25.168H10.374L6.344 15.47V26H1.82ZM24.8239 26V6.83801H29.6859V22.048H38.4739V26H24.8239ZM40.693 26V6.83801H55.253V10.79H45.555V14.326H54.291V17.992H45.555V22.048H55.253V26H40.693Z" fill="#4535F6"/>
<path d="M1.75 38L0.700001 36.95V33.82L1.75 32.77H4.08L5.13 33.82V35.71H1.58V36.72L2.13 37.27H5.04V38H1.75ZM1.58 35.01H4.25V34.02L3.7 33.47H2.13L1.58 34.02V35.01ZM6.46008 35.43V34.69H9.76008V35.43H6.46008ZM11.0106 38V37.16H11.9106V31.47H11.0106V30.63H13.7206V31.47H12.8206V37.16H13.7206V38H11.0106ZM15.1559 38V32.77H16.0359V33.71L16.9459 32.77H18.8759L19.9159 33.82V38H19.0359V34.04L18.5059 33.47H17.1759L16.0359 34.63V38H15.1559ZM22.9262 38L20.7062 32.77H21.6662L23.3562 37.12H23.5862L25.2662 32.77H26.2362L24.0162 38H22.9262ZM27.8828 38L26.8328 36.95V33.82L27.8828 32.77H30.3628L31.4128 33.82V36.95L30.3628 38H27.8828ZM28.2628 37.3H29.9828L30.5328 36.75L30.5228 34.02L29.9828 33.47H28.2628L27.7128 34.02V36.75L28.2628 37.3ZM32.9294 32.2V31.02H33.8094V32.2H32.9294ZM32.9294 38V32.77H33.8094V38H32.9294ZM36.3691 38L35.3191 36.95V33.82L36.3691 32.77H38.7591L39.6791 33.68V34.51H38.7991V33.97L38.2991 33.47H36.7491L36.1991 34.02V36.71L36.7491 37.27H39.6291V38H36.3691ZM41.0251 32.2V31.02H41.9051V32.2H41.0251ZM41.0251 38V32.77H41.9051V38H41.0251ZM43.5348 38V32.77H44.4148V33.71L45.3248 32.77H47.2548L48.2948 33.82V38H47.4148V34.04L46.8848 33.47H45.5548L44.4148 34.63V38H43.5348ZM50.1725 39.87V39.14L52.9925 39.13L53.5425 38.59V37.18L52.7325 38H50.8125L49.7625 36.95V33.82L50.8125 32.77H52.7325L53.5425 33.6V32.77H54.4225V38.82L53.3725 39.87H50.1725ZM52.5125 37.3L53.5425 36.26V34.52L52.5125 33.47H51.1925L50.6425 34.02V36.75L51.1925 37.3H52.5125Z" fill="#111111"/>
</svg>
