<svg width="1068" height="896" viewBox="0 0 1068 896" fill="none" xmlns="http://www.w3.org/2000/svg">
<path d="M1067.09 149.713C1067.09 149.713 765.103 2.59178 451.986 190.849C138.869 379.107 202.267 895 202.267 895M871.09 746.287C871.09 746.287 569.103 893.408 255.986 705.151C-57.1309 516.893 6.26682 1 6.26682 1" stroke="#C1C8D7"/>
<path d="M428 222C428 233.046 419.046 242 408 242C396.954 242 388 233.046 388 222C388 210.954 396.954 202 408 202C419.046 202 428 210.954 428 222Z" fill="#1EED93"/>
<path d="M216 884C216 890.627 210.627 896 204 896C197.373 896 192 890.627 192 884C192 877.373 197.373 872 204 872C210.627 872 216 877.373 216 884Z" fill="#1EED93"/>
</svg>
