<svg width="24" height="24" viewBox="0 0 24 24" fill="none" xmlns="http://www.w3.org/2000/svg">
<path d="M20.8 1.2C20.0045 1.20064 19.2419 1.51691 18.6794 2.07938C18.1169 2.64185 17.8006 3.40455 17.8 4.2C17.8 4.6284 17.8936 5.0352 18.0568 5.406L15.7108 8.0448C14.9138 7.4947 13.9684 7.20005 13 7.2C12.112 7.2 11.2912 7.4592 10.5772 7.8792L7.8484 5.1516L7.8208 5.1792C8.056 4.7016 8.2 4.17 8.2 3.6C8.2 2.88799 7.98886 2.19197 7.59329 1.59995C7.19772 1.00793 6.63548 0.546511 5.97766 0.274035C5.31985 0.00155983 4.59601 -0.0697322 3.89768 0.0691746C3.19934 0.208081 2.55789 0.550948 2.05442 1.05442C1.55095 1.55789 1.20808 2.19934 1.06917 2.89768C0.930268 3.59601 1.00156 4.31985 1.27404 4.97766C1.54651 5.63548 2.00793 6.19772 2.59995 6.59329C3.19197 6.98886 3.88799 7.2 4.6 7.2C5.17 7.2 5.7004 7.056 6.1792 6.8208L6.1516 6.8484L8.8804 9.576C8.43957 10.308 8.2045 11.1455 8.2 12C8.2 13.1964 8.656 14.2788 9.382 15.1212L6.2896 18.2124C5.943 18.0737 5.57333 18.0016 5.2 18C3.5464 18 2.2 19.3452 2.2 21C2.2 22.6548 3.5464 24 5.2 24C6.8536 24 8.2 22.6548 8.2 21C8.2 20.6148 8.1208 20.2488 7.9876 19.9092L11.3932 16.5036C11.8984 16.6836 12.4336 16.8 13 16.8C15.6472 16.8 17.8 14.6472 17.8 12C17.8 11.2368 17.6044 10.5252 17.2864 9.8832L19.8268 7.0236C20.134 7.1292 20.458 7.2 20.8 7.2C22.4548 7.2 23.8 5.8548 23.8 4.2C23.8 2.5452 22.4548 1.2 20.8 1.2ZM13 14.4C11.6764 14.4 10.6 13.3236 10.6 12C10.6 10.6764 11.6764 9.6 13 9.6C14.3236 9.6 15.4 10.6764 15.4 12C15.4 13.3236 14.3236 14.4 13 14.4Z" fill="white"/>
</svg>
