<svg width="83" height="64" viewBox="0 0 83 64" fill="none" xmlns="http://www.w3.org/2000/svg">
<path d="M73.52 1.77487C74.0319 1.25262 74.6428 0.837727 75.317 0.554491C75.9911 0.271255 76.715 0.125366 77.4463 0.125366C78.1775 0.125366 78.9015 0.271255 79.5756 0.554491C80.2498 0.837727 80.8607 1.25262 81.3725 1.77487C83.5175 3.94237 83.5475 7.44487 81.4475 9.64987L37.1 62.0749C36.5965 62.6278 35.9855 63.0722 35.3044 63.3808C34.6232 63.6894 33.8863 63.8559 33.1386 63.8699C32.3909 63.884 31.6482 63.7453 30.956 63.4625C30.2637 63.1796 29.6364 62.7585 29.1125 62.2249L2.12753 34.8799C1.08681 33.8185 0.503845 32.3913 0.503845 30.9049C0.503845 29.4184 1.08681 27.9912 2.12753 26.9299C2.63938 26.4076 3.25027 25.9927 3.92445 25.7095C4.59862 25.4263 5.32253 25.2804 6.05379 25.2804C6.78504 25.2804 7.50895 25.4263 8.18312 25.7095C8.8573 25.9927 9.46819 26.4076 9.98004 26.9299L32.87 50.1274L73.37 1.93987C73.4167 1.88191 73.4668 1.82681 73.52 1.77487Z" fill="#4535F6"/>
</svg>
