<svg width="206" height="31" viewBox="0 0 206 31" fill="none" xmlns="http://www.w3.org/2000/svg">
<path opacity="0.7" d="M22.3226 9.43019C21.7706 9.43019 21.2746 9.33419 20.8346 9.14219C20.4026 8.94219 20.0626 8.67019 19.8146 8.32619C19.5666 7.97419 19.4386 7.57019 19.4306 7.11419L20.5946 7.11419C20.6346 7.50619 20.7946 7.83819 21.0746 8.11019C21.3626 8.37419 21.7786 8.50619 22.3226 8.50619C22.8426 8.50619 23.2506 8.37819 23.5466 8.12219C23.8506 7.85819 24.0026 7.52219 24.0026 7.11419C24.0026 6.79419 23.9146 6.53419 23.7386 6.33419C23.5626 6.13419 23.3426 5.98219 23.0786 5.87819C22.8146 5.77419 22.4586 5.66219 22.0106 5.54219C21.4586 5.39819 21.0146 5.25419 20.6786 5.11019C20.3506 4.96619 20.0666 4.74219 19.8266 4.43819C19.5946 4.12619 19.4786 3.71019 19.4786 3.19019C19.4786 2.73419 19.5946 2.33019 19.8266 1.97819C20.0586 1.62619 20.3826 1.35419 20.7986 1.16219C21.2226 0.970191 21.7066 0.874191 22.2506 0.874191C23.0346 0.874191 23.6746 1.07019 24.1706 1.46219C24.6746 1.85419 24.9586 2.37419 25.0226 3.02219L23.8226 3.02219C23.7826 2.70219 23.6146 2.42219 23.3186 2.18219C23.0226 1.93419 22.6306 1.81019 22.1426 1.81019C21.6866 1.81019 21.3146 1.93019 21.0266 2.17019C20.7386 2.40219 20.5946 2.73019 20.5946 3.15419C20.5946 3.45819 20.6786 3.70619 20.8466 3.89819C21.0226 4.09019 21.2346 4.23819 21.4826 4.34219C21.7386 4.43819 22.0946 4.55019 22.5506 4.67819C23.1026 4.83019 23.5466 4.98219 23.8826 5.13419C24.2186 5.27819 24.5066 5.50619 24.7466 5.81819C24.9866 6.12219 25.1066 6.53819 25.1066 7.06619C25.1066 7.47419 24.9986 7.85819 24.7826 8.21819C24.5666 8.57819 24.2466 8.87019 23.8226 9.09419C23.3986 9.31819 22.8986 9.43019 22.3226 9.43019ZM26.7056 6.03419C26.7056 5.36219 26.8416 4.77419 27.1136 4.27019C27.3856 3.75819 27.7576 3.36219 28.2296 3.08219C28.7096 2.80219 29.2416 2.66219 29.8256 2.66219C30.4016 2.66219 30.9016 2.78619 31.3256 3.03419C31.7496 3.28219 32.0656 3.59419 32.2736 3.97019L32.2736 2.77019L33.3776 2.77019L33.3776 9.34619L32.2736 9.34619L32.2736 8.12219C32.0576 8.50619 31.7336 8.82619 31.3016 9.08219C30.8776 9.33019 30.3816 9.45419 29.8136 9.45419C29.2296 9.45419 28.7016 9.31019 28.2296 9.02219C27.7576 8.73419 27.3856 8.33019 27.1136 7.81019C26.8416 7.29019 26.7056 6.69819 26.7056 6.03419ZM32.2736 6.04619C32.2736 5.55019 32.1736 5.11819 31.9736 4.75019C31.7736 4.38219 31.5016 4.10219 31.1576 3.91019C30.8216 3.71019 30.4496 3.61019 30.0416 3.61019C29.6336 3.61019 29.2616 3.70619 28.9256 3.89819C28.5896 4.09019 28.3216 4.37019 28.1216 4.73819C27.9216 5.10619 27.8216 5.53819 27.8216 6.03419C27.8216 6.53819 27.9216 6.97819 28.1216 7.35419C28.3216 7.72219 28.5896 8.00619 28.9256 8.20619C29.2616 8.39819 29.6336 8.49419 30.0416 8.49419C30.4496 8.49419 30.8216 8.39819 31.1576 8.20619C31.5016 8.00619 31.7736 7.72219 31.9736 7.35419C32.1736 6.97819 32.2736 6.54219 32.2736 6.04619ZM36.7149 0.466191L36.7149 9.34619L35.6229 9.34619L35.6229 0.466191L36.7149 0.466191ZM44.9761 5.80619C44.9761 6.01419 44.9641 6.23419 44.9401 6.46619L39.6841 6.46619C39.7241 7.11419 39.9441 7.62219 40.3441 7.99019C40.7521 8.35019 41.2441 8.53019 41.8201 8.53019C42.2921 8.53019 42.6841 8.42219 42.9961 8.20619C43.3161 7.98219 43.5401 7.68619 43.6681 7.31819L44.8441 7.31819C44.6681 7.95019 44.3161 8.46619 43.7881 8.86619C43.2601 9.25819 42.6041 9.45419 41.8201 9.45419C41.1961 9.45419 40.6361 9.31419 40.1401 9.03419C39.6521 8.75419 39.2681 8.35819 38.9881 7.84619C38.7081 7.32619 38.5681 6.72619 38.5681 6.04619C38.5681 5.36619 38.7041 4.77019 38.9761 4.25819C39.2481 3.74619 39.6281 3.35419 40.1161 3.08219C40.6121 2.80219 41.1801 2.66219 41.8201 2.66219C42.4441 2.66219 42.9961 2.79819 43.4761 3.07019C43.9561 3.34219 44.3241 3.71819 44.5801 4.19819C44.8441 4.67019 44.9761 5.20619 44.9761 5.80619ZM43.8481 5.57819C43.8481 5.16219 43.7561 4.80619 43.5721 4.51019C43.3881 4.20619 43.1361 3.97819 42.8161 3.82619C42.5041 3.66619 42.1561 3.58619 41.7721 3.58619C41.2201 3.58619 40.7481 3.76219 40.3561 4.11419C39.9721 4.46619 39.7521 4.95419 39.6961 5.57819L43.8481 5.57819ZM49.1455 9.45419C48.6415 9.45419 48.1895 9.37019 47.7895 9.20219C47.3895 9.02619 47.0735 8.78619 46.8415 8.48219C46.6095 8.17019 46.4815 7.81419 46.4575 7.41419L47.5855 7.41419C47.6175 7.74219 47.7695 8.01019 48.0415 8.21819C48.3215 8.42619 48.6855 8.53019 49.1335 8.53019C49.5495 8.53019 49.8775 8.43819 50.1175 8.25419C50.3575 8.07019 50.4775 7.83819 50.4775 7.55819C50.4775 7.27019 50.3495 7.05819 50.0935 6.92219C49.8375 6.77819 49.4415 6.63819 48.9055 6.50219C48.4175 6.37419 48.0175 6.24619 47.7055 6.11819C47.4015 5.98219 47.1375 5.78619 46.9135 5.53019C46.6975 5.26619 46.5895 4.92219 46.5895 4.49819C46.5895 4.16219 46.6895 3.85419 46.8895 3.57419C47.0895 3.29419 47.3735 3.07419 47.7415 2.91419C48.1095 2.74619 48.5295 2.66219 49.0015 2.66219C49.7295 2.66219 50.3175 2.84619 50.7655 3.21419C51.2135 3.58219 51.4535 4.08619 51.4855 4.72619L50.3935 4.72619C50.3695 4.38219 50.2295 4.10619 49.9735 3.89819C49.7255 3.69019 49.3895 3.58619 48.9655 3.58619C48.5735 3.58619 48.2615 3.67019 48.0295 3.83819C47.7975 4.00619 47.6815 4.22619 47.6815 4.49819C47.6815 4.71419 47.7495 4.89419 47.8855 5.03819C48.0295 5.17419 48.2055 5.28619 48.4135 5.37419C48.6295 5.45419 48.9255 5.54619 49.3015 5.65019C49.7735 5.77819 50.1575 5.90619 50.4535 6.03419C50.7495 6.15419 51.0015 6.33819 51.2095 6.58619C51.4255 6.83419 51.5375 7.15819 51.5455 7.55819C51.5455 7.91819 51.4455 8.24219 51.2455 8.53019C51.0455 8.81819 50.7615 9.04619 50.3935 9.21419C50.0335 9.37419 49.6175 9.45419 49.1455 9.45419Z" fill="#232D42"/>
<circle cx="5.12915" cy="5.1665" r="4" fill="#4535F6"/>
<path d="M26.6846 26.5322C26.6846 27.0175 26.5586 27.4749 26.3066 27.9042C26.0639 28.3242 25.6999 28.6742 25.2146 28.9542C24.7386 29.2249 24.1739 29.3835 23.5206 29.4302L23.5206 30.5642L22.6246 30.5642L22.6246 29.4162C21.6912 29.3322 20.9399 29.0522 20.3706 28.5762C19.8012 28.0909 19.5072 27.4375 19.4886 26.6162L21.5886 26.6162C21.6446 27.2882 21.9899 27.6942 22.6246 27.8342L22.6246 25.1602C21.9526 24.9922 21.4112 24.8242 21.0006 24.6562C20.5899 24.4882 20.2352 24.2175 19.9366 23.8442C19.6379 23.4709 19.4886 22.9622 19.4886 22.3182C19.4886 21.5062 19.7779 20.8435 20.3566 20.3302C20.9446 19.8169 21.7006 19.5229 22.6246 19.4482L22.6246 18.3142L23.5206 18.3142L23.5206 19.4482C24.4166 19.5229 25.1306 19.7935 25.6626 20.2602C26.2039 20.7269 26.5072 21.3709 26.5726 22.1922L24.4586 22.1922C24.4306 21.9215 24.3326 21.6882 24.1646 21.4922C24.0059 21.2869 23.7912 21.1422 23.5206 21.0582L23.5206 23.7042C24.2206 23.8815 24.7712 24.0542 25.1726 24.2222C25.5832 24.3809 25.9379 24.6469 26.2366 25.0202C26.5352 25.3842 26.6846 25.8882 26.6846 26.5322ZM21.5326 22.2202C21.5326 22.5282 21.6259 22.7802 21.8126 22.9762C21.9992 23.1629 22.2699 23.3169 22.6246 23.4382L22.6246 21.0162C22.2886 21.0629 22.0226 21.1889 21.8266 21.3942C21.6306 21.5995 21.5326 21.8749 21.5326 22.2202ZM23.5206 27.8622C23.8752 27.7969 24.1506 27.6522 24.3466 27.4282C24.5519 27.2042 24.6546 26.9335 24.6546 26.6162C24.6546 26.3082 24.5566 26.0609 24.3606 25.8742C24.1646 25.6875 23.8846 25.5335 23.5206 25.4122L23.5206 27.8622ZM31.3567 26.4762C31.4314 26.8869 31.5994 27.2042 31.8607 27.4282C32.1314 27.6429 32.4907 27.7502 32.9387 27.7502C33.5174 27.7502 33.9374 27.5122 34.1987 27.0362C34.4601 26.5509 34.5907 25.7389 34.5907 24.6002C34.3761 24.8989 34.0727 25.1322 33.6807 25.3002C33.2981 25.4682 32.8827 25.5522 32.4347 25.5522C31.8374 25.5522 31.2961 25.4309 30.8107 25.1882C30.3347 24.9362 29.9567 24.5675 29.6767 24.0822C29.3967 23.5875 29.2567 22.9902 29.2567 22.2902C29.2567 21.2542 29.5647 20.4329 30.1807 19.8262C30.7967 19.2102 31.6367 18.9022 32.7007 18.9022C34.0261 18.9022 34.9594 19.3269 35.5007 20.1762C36.0514 21.0255 36.3267 22.3042 36.3267 24.0122C36.3267 25.2255 36.2194 26.2195 36.0047 26.9942C35.7994 27.7689 35.4401 28.3569 34.9267 28.7582C34.4227 29.1595 33.7321 29.3602 32.8547 29.3602C32.1641 29.3602 31.5761 29.2295 31.0907 28.9682C30.6054 28.6975 30.2321 28.3475 29.9707 27.9182C29.7187 27.4795 29.5741 26.9989 29.5367 26.4762L31.3567 26.4762ZM32.8407 23.9562C33.3261 23.9562 33.7087 23.8069 33.9887 23.5082C34.2687 23.2095 34.4087 22.8082 34.4087 22.3042C34.4087 21.7535 34.2594 21.3289 33.9607 21.0302C33.6714 20.7222 33.2747 20.5682 32.7707 20.5682C32.2667 20.5682 31.8654 20.7269 31.5667 21.0442C31.2774 21.3522 31.1327 21.7629 31.1327 22.2762C31.1327 22.7709 31.2727 23.1769 31.5527 23.4942C31.8421 23.8022 32.2714 23.9562 32.8407 23.9562ZM43.5844 21.6882C43.4911 21.2962 43.3277 21.0022 43.0944 20.8062C42.8704 20.6102 42.5437 20.5122 42.1144 20.5122C41.4704 20.5122 40.9944 20.7735 40.6864 21.2962C40.3877 21.8095 40.2337 22.6495 40.2244 23.8162C40.4484 23.4429 40.7751 23.1535 41.2044 22.9482C41.6337 22.7335 42.1004 22.6262 42.6044 22.6262C43.2111 22.6262 43.7477 22.7569 44.2144 23.0182C44.6811 23.2795 45.0451 23.6622 45.3064 24.1662C45.5677 24.6609 45.6984 25.2582 45.6984 25.9582C45.6984 26.6209 45.5631 27.2135 45.2924 27.7362C45.0311 28.2495 44.6437 28.6509 44.1304 28.9402C43.6171 29.2295 43.0057 29.3742 42.2964 29.3742C41.3257 29.3742 40.5604 29.1595 40.0004 28.7302C39.4497 28.3009 39.0624 27.7035 38.8384 26.9382C38.6237 26.1635 38.5164 25.2115 38.5164 24.0822C38.5164 22.3742 38.8104 21.0862 39.3984 20.2182C39.9864 19.3409 40.9151 18.9022 42.1844 18.9022C43.1644 18.9022 43.9251 19.1682 44.4664 19.7002C45.0077 20.2322 45.3204 20.8949 45.4044 21.6882L43.5844 21.6882ZM42.1564 24.2362C41.6617 24.2362 41.2464 24.3809 40.9104 24.6702C40.5744 24.9595 40.4064 25.3795 40.4064 25.9302C40.4064 26.4809 40.5604 26.9149 40.8684 27.2322C41.1857 27.5495 41.6291 27.7082 42.1984 27.7082C42.7024 27.7082 43.0991 27.5542 43.3884 27.2462C43.6871 26.9382 43.8364 26.5229 43.8364 26.0002C43.8364 25.4589 43.6917 25.0295 43.4024 24.7122C43.1224 24.3949 42.7071 24.2362 42.1564 24.2362ZM48.3035 27.1342C49.1995 26.3875 49.9135 25.7669 50.4455 25.2722C50.9775 24.7682 51.4208 24.2455 51.7755 23.7042C52.1302 23.1629 52.3075 22.6309 52.3075 22.1082C52.3075 21.6322 52.1955 21.2589 51.9715 20.9882C51.7475 20.7175 51.4022 20.5822 50.9355 20.5822C50.4688 20.5822 50.1095 20.7409 49.8575 21.0582C49.6055 21.3662 49.4748 21.7909 49.4655 22.3322L47.5615 22.3322C47.5988 21.2122 47.9302 20.3629 48.5555 19.7842C49.1902 19.2055 49.9928 18.9162 50.9635 18.9162C52.0275 18.9162 52.8442 19.2009 53.4135 19.7702C53.9828 20.3302 54.2675 21.0722 54.2675 21.9962C54.2675 22.7242 54.0715 23.4195 53.6795 24.0822C53.2875 24.7449 52.8395 25.3235 52.3355 25.8182C51.8315 26.3035 51.1735 26.8915 50.3615 27.5822L54.4915 27.5822L54.4915 29.2062L47.5755 29.2062L47.5755 27.7502L48.3035 27.1342ZM57.2585 29.4442C56.9039 29.4442 56.6099 29.3369 56.3765 29.1222C56.1525 28.8982 56.0405 28.6229 56.0405 28.2962C56.0405 27.9695 56.1525 27.6989 56.3765 27.4842C56.6099 27.2602 56.9039 27.1482 57.2585 27.1482C57.6039 27.1482 57.8885 27.2602 58.1125 27.4842C58.3365 27.6989 58.4485 27.9695 58.4485 28.2962C58.4485 28.6229 58.3365 28.8982 58.1125 29.1222C57.8885 29.3369 57.6039 29.4442 57.2585 29.4442ZM60.2713 21.8282C60.3179 20.8949 60.6446 20.1762 61.2513 19.6722C61.8673 19.1589 62.6746 18.9022 63.6733 18.9022C64.3546 18.9022 64.9379 19.0235 65.4233 19.2662C65.9086 19.4995 66.2726 19.8215 66.5153 20.2322C66.7673 20.6335 66.8933 21.0909 66.8933 21.6042C66.8933 22.1922 66.7393 22.6915 66.4313 23.1022C66.1326 23.5035 65.7733 23.7742 65.3533 23.9142L65.3533 23.9702C65.8946 24.1382 66.3146 24.4369 66.6133 24.8662C66.9213 25.2955 67.0753 25.8462 67.0753 26.5182C67.0753 27.0782 66.9446 27.5775 66.6833 28.0162C66.4313 28.4549 66.0533 28.8002 65.5493 29.0522C65.0546 29.2949 64.4573 29.4162 63.7573 29.4162C62.7026 29.4162 61.8439 29.1502 61.1813 28.6182C60.5186 28.0862 60.1686 27.3022 60.1313 26.2662L62.0353 26.2662C62.0539 26.7235 62.2079 27.0922 62.4973 27.3722C62.7959 27.6429 63.2019 27.7782 63.7153 27.7782C64.1913 27.7782 64.5553 27.6475 64.8073 27.3862C65.0686 27.1155 65.1993 26.7702 65.1993 26.3502C65.1993 25.7902 65.0219 25.3889 64.6673 25.1462C64.3126 24.9035 63.7619 24.7822 63.0153 24.7822L62.6093 24.7822L62.6093 23.1722L63.0153 23.1722C64.3406 23.1722 65.0033 22.7289 65.0033 21.8422C65.0033 21.4409 64.8819 21.1282 64.6393 20.9042C64.4059 20.6802 64.0653 20.5682 63.6173 20.5682C63.1786 20.5682 62.8379 20.6895 62.5953 20.9322C62.3619 21.1655 62.2266 21.4642 62.1893 21.8282L60.2713 21.8282ZM71.3321 26.4762C71.4068 26.8869 71.5748 27.2042 71.8361 27.4282C72.1068 27.6429 72.4661 27.7502 72.9141 27.7502C73.4928 27.7502 73.9128 27.5122 74.1741 27.0362C74.4355 26.5509 74.5661 25.7389 74.5661 24.6002C74.3515 24.8989 74.0481 25.1322 73.6561 25.3002C73.2735 25.4682 72.8581 25.5522 72.4101 25.5522C71.8128 25.5522 71.2715 25.4309 70.7861 25.1882C70.3101 24.9362 69.9321 24.5675 69.6521 24.0822C69.3721 23.5875 69.2321 22.9902 69.2321 22.2902C69.2321 21.2542 69.5401 20.4329 70.1561 19.8262C70.7721 19.2102 71.6121 18.9022 72.6761 18.9022C74.0015 18.9022 74.9348 19.3269 75.4761 20.1762C76.0268 21.0255 76.3021 22.3042 76.3021 24.0122C76.3021 25.2255 76.1948 26.2195 75.9801 26.9942C75.7748 27.7689 75.4155 28.3569 74.9021 28.7582C74.3981 29.1595 73.7075 29.3602 72.8301 29.3602C72.1395 29.3602 71.5515 29.2295 71.0661 28.9682C70.5808 28.6975 70.2075 28.3475 69.9461 27.9182C69.6941 27.4795 69.5495 26.9989 69.5121 26.4762L71.3321 26.4762ZM72.8161 23.9562C73.3015 23.9562 73.6841 23.8069 73.9641 23.5082C74.2441 23.2095 74.3841 22.8082 74.3841 22.3042C74.3841 21.7535 74.2348 21.3289 73.9361 21.0302C73.6468 20.7222 73.2501 20.5682 72.7461 20.5682C72.2421 20.5682 71.8408 20.7269 71.5421 21.0442C71.2528 21.3522 71.1081 21.7629 71.1081 22.2762C71.1081 22.7709 71.2481 23.1769 71.5281 23.4942C71.8175 23.8022 72.2468 23.9562 72.8161 23.9562Z" fill="#232D42"/>
<path opacity="0.7" d="M136.897 10.3462L134.905 6.92619L133.585 6.92619L133.585 10.3462L132.493 10.3462L132.493 1.98219L135.193 1.98219C135.825 1.98219 136.357 2.09019 136.789 2.30619C137.229 2.52219 137.557 2.81419 137.773 3.18219C137.989 3.55019 138.097 3.97019 138.097 4.44219C138.097 5.01819 137.929 5.52619 137.593 5.96619C137.265 6.40619 136.769 6.69819 136.105 6.84219L138.205 10.3462L136.897 10.3462ZM133.585 6.05019L135.193 6.05019C135.785 6.05019 136.229 5.90619 136.525 5.61819C136.821 5.32219 136.969 4.93019 136.969 4.44219C136.969 3.94619 136.821 3.56219 136.525 3.29019C136.237 3.01819 135.793 2.88219 135.193 2.88219L133.585 2.88219L133.585 6.05019ZM146.194 6.80619C146.194 7.01419 146.182 7.23419 146.158 7.46619L140.902 7.46619C140.942 8.11419 141.162 8.62219 141.562 8.99019C141.97 9.35019 142.462 9.53019 143.038 9.53019C143.51 9.53019 143.902 9.42219 144.214 9.20619C144.534 8.98219 144.758 8.68619 144.886 8.31819L146.062 8.31819C145.886 8.95019 145.534 9.46619 145.006 9.86619C144.478 10.2582 143.822 10.4542 143.038 10.4542C142.414 10.4542 141.854 10.3142 141.358 10.0342C140.87 9.75419 140.486 9.35819 140.206 8.84619C139.926 8.32619 139.786 7.72619 139.786 7.04619C139.786 6.36619 139.922 5.77019 140.194 5.25819C140.466 4.74619 140.846 4.35419 141.334 4.08219C141.83 3.80219 142.398 3.66219 143.038 3.66219C143.662 3.66219 144.214 3.79819 144.694 4.07019C145.174 4.34219 145.542 4.71819 145.798 5.19819C146.062 5.67019 146.194 6.20619 146.194 6.80619ZM145.066 6.57819C145.066 6.16219 144.974 5.80619 144.79 5.51019C144.606 5.20619 144.354 4.97819 144.034 4.82619C143.722 4.66619 143.374 4.58619 142.99 4.58619C142.438 4.58619 141.966 4.76219 141.574 5.11419C141.19 5.46619 140.97 5.95419 140.914 6.57819L145.066 6.57819ZM147.627 7.04619C147.627 6.36619 147.763 5.77419 148.035 5.27019C148.307 4.75819 148.683 4.36219 149.163 4.08219C149.651 3.80219 150.207 3.66219 150.831 3.66219C151.639 3.66219 152.303 3.85819 152.823 4.25019C153.351 4.64219 153.699 5.18619 153.867 5.88219L152.691 5.88219C152.579 5.48219 152.359 5.16619 152.031 4.93419C151.711 4.70219 151.311 4.58619 150.831 4.58619C150.207 4.58619 149.703 4.80219 149.319 5.23419C148.935 5.65819 148.743 6.26219 148.743 7.04619C148.743 7.83819 148.935 8.45019 149.319 8.88219C149.703 9.31419 150.207 9.53019 150.831 9.53019C151.311 9.53019 151.711 9.41819 152.031 9.19419C152.351 8.97019 152.571 8.65019 152.691 8.23419L153.867 8.23419C153.691 8.90619 153.339 9.44619 152.811 9.85419C152.283 10.2542 151.623 10.4542 150.831 10.4542C150.207 10.4542 149.651 10.3142 149.163 10.0342C148.683 9.75419 148.307 9.35819 148.035 8.84619C147.763 8.33419 147.627 7.73419 147.627 7.04619ZM158.592 10.4542C157.976 10.4542 157.416 10.3142 156.912 10.0342C156.416 9.75419 156.024 9.35819 155.736 8.84619C155.456 8.32619 155.316 7.72619 155.316 7.04619C155.316 6.37419 155.46 5.78219 155.748 5.27019C156.044 4.75019 156.444 4.35419 156.948 4.08219C157.452 3.80219 158.016 3.66219 158.64 3.66219C159.264 3.66219 159.828 3.80219 160.332 4.08219C160.836 4.35419 161.232 4.74619 161.52 5.25819C161.816 5.77019 161.964 6.36619 161.964 7.04619C161.964 7.72619 161.812 8.32619 161.508 8.84619C161.212 9.35819 160.808 9.75419 160.296 10.0342C159.784 10.3142 159.216 10.4542 158.592 10.4542ZM158.592 9.49419C158.984 9.49419 159.352 9.40219 159.696 9.21819C160.04 9.03419 160.316 8.75819 160.524 8.39019C160.74 8.02219 160.848 7.57419 160.848 7.04619C160.848 6.51819 160.744 6.07019 160.536 5.70219C160.328 5.33419 160.056 5.06219 159.72 4.88619C159.384 4.70219 159.02 4.61019 158.628 4.61019C158.228 4.61019 157.86 4.70219 157.524 4.88619C157.196 5.06219 156.932 5.33419 156.732 5.70219C156.532 6.07019 156.432 6.51819 156.432 7.04619C156.432 7.58219 156.528 8.03419 156.72 8.40219C156.92 8.77019 157.184 9.04619 157.512 9.23019C157.84 9.40619 158.2 9.49419 158.592 9.49419ZM167.004 3.65019C167.804 3.65019 168.452 3.89419 168.948 4.38219C169.444 4.86219 169.692 5.55819 169.692 6.47019L169.692 10.3462L168.612 10.3462L168.612 6.62619C168.612 5.97019 168.448 5.47019 168.12 5.12619C167.792 4.77419 167.344 4.59819 166.776 4.59819C166.2 4.59819 165.74 4.77819 165.396 5.13819C165.06 5.49819 164.892 6.02219 164.892 6.71019L164.892 10.3462L163.8 10.3462L163.8 3.77019L164.892 3.77019L164.892 4.70619C165.108 4.37019 165.4 4.11019 165.768 3.92619C166.144 3.74219 166.556 3.65019 167.004 3.65019ZM171.468 7.04619C171.468 6.36619 171.604 5.77419 171.876 5.27019C172.148 4.75819 172.524 4.36219 173.004 4.08219C173.492 3.80219 174.048 3.66219 174.672 3.66219C175.48 3.66219 176.144 3.85819 176.664 4.25019C177.192 4.64219 177.54 5.18619 177.708 5.88219L176.532 5.88219C176.42 5.48219 176.2 5.16619 175.872 4.93419C175.552 4.70219 175.152 4.58619 174.672 4.58619C174.048 4.58619 173.544 4.80219 173.16 5.23419C172.776 5.65819 172.584 6.26219 172.584 7.04619C172.584 7.83819 172.776 8.45019 173.16 8.88219C173.544 9.31419 174.048 9.53019 174.672 9.53019C175.152 9.53019 175.552 9.41819 175.872 9.19419C176.192 8.97019 176.412 8.65019 176.532 8.23419L177.708 8.23419C177.532 8.90619 177.18 9.44619 176.652 9.85419C176.124 10.2542 175.464 10.4542 174.672 10.4542C174.048 10.4542 173.492 10.3142 173.004 10.0342C172.524 9.75419 172.148 9.35819 171.876 8.84619C171.604 8.33419 171.468 7.73419 171.468 7.04619ZM180.129 2.70219C179.921 2.70219 179.745 2.63019 179.601 2.48619C179.457 2.34219 179.385 2.16619 179.385 1.95819C179.385 1.75019 179.457 1.57419 179.601 1.43019C179.745 1.28619 179.921 1.21419 180.129 1.21419C180.329 1.21419 180.497 1.28619 180.633 1.43019C180.777 1.57419 180.849 1.75019 180.849 1.95819C180.849 2.16619 180.777 2.34219 180.633 2.48619C180.497 2.63019 180.329 2.70219 180.129 2.70219ZM180.657 3.77019L180.657 10.3462L179.565 10.3462L179.565 3.77019L180.657 3.77019ZM184.01 1.46619L184.01 10.3462L182.918 10.3462L182.918 1.46619L184.01 1.46619ZM192.271 6.80619C192.271 7.01419 192.259 7.23419 192.235 7.46619L186.979 7.46619C187.019 8.11419 187.239 8.62219 187.639 8.99019C188.047 9.35019 188.539 9.53019 189.115 9.53019C189.587 9.53019 189.979 9.42219 190.291 9.20619C190.611 8.98219 190.835 8.68619 190.963 8.31819L192.139 8.31819C191.963 8.95019 191.611 9.46619 191.083 9.86619C190.555 10.2582 189.899 10.4542 189.115 10.4542C188.491 10.4542 187.931 10.3142 187.435 10.0342C186.947 9.75419 186.563 9.35819 186.283 8.84619C186.003 8.32619 185.863 7.72619 185.863 7.04619C185.863 6.36619 185.999 5.77019 186.271 5.25819C186.543 4.74619 186.923 4.35419 187.411 4.08219C187.907 3.80219 188.475 3.66219 189.115 3.66219C189.739 3.66219 190.291 3.79819 190.771 4.07019C191.251 4.34219 191.619 4.71819 191.875 5.19819C192.139 5.67019 192.271 6.20619 192.271 6.80619ZM191.143 6.57819C191.143 6.16219 191.051 5.80619 190.867 5.51019C190.683 5.20619 190.431 4.97819 190.111 4.82619C189.799 4.66619 189.451 4.58619 189.067 4.58619C188.515 4.58619 188.043 4.76219 187.651 5.11419C187.267 5.46619 187.047 5.95419 186.991 6.57819L191.143 6.57819Z" fill="#232D42"/>
<circle cx="117.952" cy="6.1665" r="4" fill="#DFD5FE"/>
<path d="M139.507 25.5322C139.507 26.0175 139.381 26.4749 139.129 26.9042C138.886 27.3242 138.522 27.6742 138.037 27.9542C137.561 28.2249 136.996 28.3835 136.343 28.4302L136.343 29.5642L135.447 29.5642L135.447 28.4162C134.514 28.3322 133.762 28.0522 133.193 27.5762C132.624 27.0909 132.33 26.4375 132.311 25.6162L134.411 25.6162C134.467 26.2882 134.812 26.6942 135.447 26.8342L135.447 24.1602C134.775 23.9922 134.234 23.8242 133.823 23.6562C133.412 23.4882 133.058 23.2175 132.759 22.8442C132.46 22.4709 132.311 21.9622 132.311 21.3182C132.311 20.5062 132.6 19.8435 133.179 19.3302C133.767 18.8169 134.523 18.5229 135.447 18.4482L135.447 17.3142L136.343 17.3142L136.343 18.4482C137.239 18.5229 137.953 18.7935 138.485 19.2602C139.026 19.7269 139.33 20.3709 139.395 21.1922L137.281 21.1922C137.253 20.9215 137.155 20.6882 136.987 20.4922C136.828 20.2869 136.614 20.1422 136.343 20.0582L136.343 22.7042C137.043 22.8815 137.594 23.0542 137.995 23.2222C138.406 23.3809 138.76 23.6469 139.059 24.0202C139.358 24.3842 139.507 24.8882 139.507 25.5322ZM134.355 21.2202C134.355 21.5282 134.448 21.7802 134.635 21.9762C134.822 22.1629 135.092 22.3169 135.447 22.4382L135.447 20.0162C135.111 20.0629 134.845 20.1889 134.649 20.3942C134.453 20.5995 134.355 20.8749 134.355 21.2202ZM136.343 26.8622C136.698 26.7969 136.973 26.6522 137.169 26.4282C137.374 26.2042 137.477 25.9335 137.477 25.6162C137.477 25.3082 137.379 25.0609 137.183 24.8742C136.987 24.6875 136.707 24.5335 136.343 24.4122L136.343 26.8622ZM144.179 25.4762C144.254 25.8869 144.422 26.2042 144.683 26.4282C144.954 26.6429 145.313 26.7502 145.761 26.7502C146.34 26.7502 146.76 26.5122 147.021 26.0362C147.283 25.5509 147.413 24.7389 147.413 23.6002C147.199 23.8989 146.895 24.1322 146.503 24.3002C146.121 24.4682 145.705 24.5522 145.257 24.5522C144.66 24.5522 144.119 24.4309 143.633 24.1882C143.157 23.9362 142.779 23.5675 142.499 23.0822C142.219 22.5875 142.079 21.9902 142.079 21.2902C142.079 20.2542 142.387 19.4329 143.003 18.8262C143.619 18.2102 144.459 17.9022 145.523 17.9022C146.849 17.9022 147.782 18.3269 148.323 19.1762C148.874 20.0255 149.149 21.3042 149.149 23.0122C149.149 24.2255 149.042 25.2195 148.827 25.9942C148.622 26.7689 148.263 27.3569 147.749 27.7582C147.245 28.1595 146.555 28.3602 145.677 28.3602C144.987 28.3602 144.399 28.2295 143.913 27.9682C143.428 27.6975 143.055 27.3475 142.793 26.9182C142.541 26.4795 142.397 25.9989 142.359 25.4762L144.179 25.4762ZM145.663 22.9562C146.149 22.9562 146.531 22.8069 146.811 22.5082C147.091 22.2095 147.231 21.8082 147.231 21.3042C147.231 20.7535 147.082 20.3289 146.783 20.0302C146.494 19.7222 146.097 19.5682 145.593 19.5682C145.089 19.5682 144.688 19.7269 144.389 20.0442C144.1 20.3522 143.955 20.7629 143.955 21.2762C143.955 21.7709 144.095 22.1769 144.375 22.4942C144.665 22.8022 145.094 22.9562 145.663 22.9562ZM156.407 20.6882C156.314 20.2962 156.15 20.0022 155.917 19.8062C155.693 19.6102 155.366 19.5122 154.937 19.5122C154.293 19.5122 153.817 19.7735 153.509 20.2962C153.21 20.8095 153.056 21.6495 153.047 22.8162C153.271 22.4429 153.598 22.1535 154.027 21.9482C154.456 21.7335 154.923 21.6262 155.427 21.6262C156.034 21.6262 156.57 21.7569 157.037 22.0182C157.504 22.2795 157.868 22.6622 158.129 23.1662C158.39 23.6609 158.521 24.2582 158.521 24.9582C158.521 25.6209 158.386 26.2135 158.115 26.7362C157.854 27.2495 157.466 27.6509 156.953 27.9402C156.44 28.2295 155.828 28.3742 155.119 28.3742C154.148 28.3742 153.383 28.1595 152.823 27.7302C152.272 27.3009 151.885 26.7035 151.661 25.9382C151.446 25.1635 151.339 24.2115 151.339 23.0822C151.339 21.3742 151.633 20.0862 152.221 19.2182C152.809 18.3409 153.738 17.9022 155.007 17.9022C155.987 17.9022 156.748 18.1682 157.289 18.7002C157.83 19.2322 158.143 19.8949 158.227 20.6882L156.407 20.6882ZM154.979 23.2362C154.484 23.2362 154.069 23.3809 153.733 23.6702C153.397 23.9595 153.229 24.3795 153.229 24.9302C153.229 25.4809 153.383 25.9149 153.691 26.2322C154.008 26.5495 154.452 26.7082 155.021 26.7082C155.525 26.7082 155.922 26.5542 156.211 26.2462C156.51 25.9382 156.659 25.5229 156.659 25.0002C156.659 24.4589 156.514 24.0295 156.225 23.7122C155.945 23.3949 155.53 23.2362 154.979 23.2362ZM161.126 26.1342C162.022 25.3875 162.736 24.7669 163.268 24.2722C163.8 23.7682 164.243 23.2455 164.598 22.7042C164.953 22.1629 165.13 21.6309 165.13 21.1082C165.13 20.6322 165.018 20.2589 164.794 19.9882C164.57 19.7175 164.225 19.5822 163.758 19.5822C163.291 19.5822 162.932 19.7409 162.68 20.0582C162.428 20.3662 162.297 20.7909 162.288 21.3322L160.384 21.3322C160.421 20.2122 160.753 19.3629 161.378 18.7842C162.013 18.2055 162.815 17.9162 163.786 17.9162C164.85 17.9162 165.667 18.2009 166.236 18.7702C166.805 19.3302 167.09 20.0722 167.09 20.9962C167.09 21.7242 166.894 22.4195 166.502 23.0822C166.11 23.7449 165.662 24.3235 165.158 24.8182C164.654 25.3035 163.996 25.8915 163.184 26.5822L167.314 26.5822L167.314 28.2062L160.398 28.2062L160.398 26.7502L161.126 26.1342ZM170.081 28.4442C169.726 28.4442 169.432 28.3369 169.199 28.1222C168.975 27.8982 168.863 27.6229 168.863 27.2962C168.863 26.9695 168.975 26.6989 169.199 26.4842C169.432 26.2602 169.726 26.1482 170.081 26.1482C170.426 26.1482 170.711 26.2602 170.935 26.4842C171.159 26.6989 171.271 26.9695 171.271 27.2962C171.271 27.6229 171.159 27.8982 170.935 28.1222C170.711 28.3369 170.426 28.4442 170.081 28.4442ZM173.094 20.8282C173.14 19.8949 173.467 19.1762 174.074 18.6722C174.69 18.1589 175.497 17.9022 176.496 17.9022C177.177 17.9022 177.76 18.0235 178.246 18.2662C178.731 18.4995 179.095 18.8215 179.338 19.2322C179.59 19.6335 179.716 20.0909 179.716 20.6042C179.716 21.1922 179.562 21.6915 179.254 22.1022C178.955 22.5035 178.596 22.7742 178.176 22.9142L178.176 22.9702C178.717 23.1382 179.137 23.4369 179.436 23.8662C179.744 24.2955 179.898 24.8462 179.898 25.5182C179.898 26.0782 179.767 26.5775 179.506 27.0162C179.254 27.4549 178.876 27.8002 178.372 28.0522C177.877 28.2949 177.28 28.4162 176.58 28.4162C175.525 28.4162 174.666 28.1502 174.004 27.6182C173.341 27.0862 172.991 26.3022 172.954 25.2662L174.858 25.2662C174.876 25.7235 175.03 26.0922 175.32 26.3722C175.618 26.6429 176.024 26.7782 176.538 26.7782C177.014 26.7782 177.378 26.6475 177.63 26.3862C177.891 26.1155 178.022 25.7702 178.022 25.3502C178.022 24.7902 177.844 24.3889 177.49 24.1462C177.135 23.9035 176.584 23.7822 175.838 23.7822L175.432 23.7822L175.432 22.1722L175.838 22.1722C177.163 22.1722 177.826 21.7289 177.826 20.8422C177.826 20.4409 177.704 20.1282 177.462 19.9042C177.228 19.6802 176.888 19.5682 176.44 19.5682C176.001 19.5682 175.66 19.6895 175.418 19.9322C175.184 20.1655 175.049 20.4642 175.012 20.8282L173.094 20.8282ZM184.155 25.4762C184.229 25.8869 184.397 26.2042 184.659 26.4282C184.929 26.6429 185.289 26.7502 185.737 26.7502C186.315 26.7502 186.735 26.5122 186.997 26.0362C187.258 25.5509 187.389 24.7389 187.389 23.6002C187.174 23.8989 186.871 24.1322 186.479 24.3002C186.096 24.4682 185.681 24.5522 185.233 24.5522C184.635 24.5522 184.094 24.4309 183.609 24.1882C183.133 23.9362 182.755 23.5675 182.475 23.0822C182.195 22.5875 182.055 21.9902 182.055 21.2902C182.055 20.2542 182.363 19.4329 182.979 18.8262C183.595 18.2102 184.435 17.9022 185.499 17.9022C186.824 17.9022 187.757 18.3269 188.299 19.1762C188.849 20.0255 189.125 21.3042 189.125 23.0122C189.125 24.2255 189.017 25.2195 188.803 25.9942C188.597 26.7689 188.238 27.3569 187.725 27.7582C187.221 28.1595 186.53 28.3602 185.653 28.3602C184.962 28.3602 184.374 28.2295 183.889 27.9682C183.403 27.6975 183.03 27.3475 182.769 26.9182C182.517 26.4795 182.372 25.9989 182.335 25.4762L184.155 25.4762ZM185.639 22.9562C186.124 22.9562 186.507 22.8069 186.787 22.5082C187.067 22.2095 187.207 21.8082 187.207 21.3042C187.207 20.7535 187.057 20.3289 186.759 20.0302C186.469 19.7222 186.073 19.5682 185.569 19.5682C185.065 19.5682 184.663 19.7269 184.365 20.0442C184.075 20.3522 183.931 20.7629 183.931 21.2762C183.931 21.7709 184.071 22.1769 184.351 22.4942C184.64 22.8022 185.069 22.9562 185.639 22.9562Z" fill="#232D42"/>
</svg>
