<svg width="160" height="160" viewBox="0 0 160 160" fill="none" xmlns="http://www.w3.org/2000/svg">
<path d="M12.9681 127.988C13.9803 130.557 16.8835 131.819 19.4528 130.807C22.0221 129.795 23.2844 126.892 22.2722 124.323L12.9681 127.988ZM137.717 124.35C136.72 126.926 138 129.821 140.575 130.818C143.15 131.815 146.046 130.535 147.043 127.96L137.717 124.35ZM26.7684 85.0955L24.2573 80.7718L24.2457 80.7786L26.7684 85.0955ZM21.8321 87.9802L19.3094 83.6632L19.3058 83.6654L21.8321 87.9802ZM58.8706 153L56.3479 148.683L56.3453 148.685L58.8706 153ZM63.8069 150.116L66.3296 154.432L66.3475 154.422L66.3654 154.411L63.8069 150.116ZM65.891 142.23L70.2379 139.759L70.2359 139.755L65.891 142.23ZM34.5605 87.2121L30.207 89.6711L30.2113 89.6788L30.2156 89.6864L34.5605 87.2121ZM133.218 85.0955L135.741 80.7786L135.729 80.7719L133.218 85.0955ZM138.154 87.9802L140.68 83.6648L140.677 83.6632L138.154 87.9802ZM101.116 152.997L103.641 148.681L103.638 148.68L101.116 152.997ZM96.1795 150.112L93.621 154.408L93.6389 154.418L93.6568 154.429L96.1795 150.112ZM94.0953 142.226L89.7505 139.752L89.7485 139.755L94.0953 142.226ZM125.426 87.2121L129.771 89.6865L129.775 89.6788L129.779 89.6711L125.426 87.2121ZM22.2722 124.323C19.9508 118.43 16.8508 110.155 14.338 101.85C11.7827 93.4056 10 85.4504 10 80.0009H0C0 87.0382 2.18369 96.2107 4.76658 104.747C7.39195 113.423 10.6021 121.982 12.9681 127.988L22.2722 124.323ZM10 80.0009C10 41.4646 44.1711 10 80 10V0C38.9034 0 0 35.69 0 80.0009H10ZM80 10C115.829 10 150 41.4646 150 80.0009H160C160 35.69 121.097 0 80 0V10ZM150 80.0009C150 85.4343 148.137 93.5535 145.53 102.112C142.969 110.515 139.866 118.798 137.717 124.35L147.043 127.96C149.22 122.335 152.427 113.783 155.095 105.026C157.716 96.4233 160 87.0544 160 80.0009H150ZM24.2457 80.7786L19.3094 83.6632L24.3549 92.2971L29.2912 89.4125L24.2457 80.7786ZM19.3058 83.6654C11.7956 88.0627 8.55216 96.6196 8.30773 105.536C8.06036 114.559 10.7827 124.873 16.2672 134.515L24.9596 129.571C20.2325 121.26 18.1142 112.734 18.304 105.81C18.4967 98.7779 20.9684 94.2799 24.3585 92.295L19.3058 83.6654ZM16.2672 134.515C21.7529 144.16 29.2152 151.724 37.0822 156.032C44.8666 160.295 53.8619 161.724 61.3959 157.316L56.3453 148.685C52.9791 150.655 47.9515 150.583 41.8853 147.261C35.9016 143.984 29.6854 137.88 24.9596 129.571L16.2672 134.515ZM61.3933 157.317L66.3296 154.432L61.2842 145.799L56.3479 148.683L61.3933 157.317ZM66.3654 154.411C68.7998 152.961 70.5689 150.615 71.2928 147.876L61.6248 145.32C61.5695 145.53 61.4343 145.709 61.2484 145.82L66.3654 154.411ZM71.2928 147.876C72.0168 145.136 71.6381 142.222 70.2379 139.759L61.5442 144.7C61.6511 144.889 61.6801 145.111 61.6248 145.32L71.2928 147.876ZM70.2359 139.755L38.9054 84.7379L30.2156 89.6864L61.5461 144.704L70.2359 139.755ZM38.9141 84.7531C38.2193 83.5231 37.2873 82.4431 36.1721 81.5759L30.0334 89.4701C30.104 89.525 30.163 89.5933 30.207 89.6711L38.9141 84.7531ZM36.1721 81.5759C35.0568 80.7087 33.7806 80.0715 32.4173 79.7011L29.7959 89.3514C29.8821 89.3749 29.9629 89.4152 30.0334 89.4701L36.1721 81.5759ZM32.4173 79.7011C31.054 79.3308 29.6307 79.2347 28.2299 79.4185L29.5309 89.3336C29.6195 89.3219 29.7096 89.328 29.7959 89.3514L32.4173 79.7011ZM28.2299 79.4185C26.8292 79.6023 25.4789 80.0623 24.2573 80.7719L29.2796 89.4192C29.3569 89.3743 29.4423 89.3452 29.5309 89.3336L28.2299 79.4185ZM130.695 89.4125L135.632 92.2971L140.677 83.6632L135.741 80.7786L130.695 89.4125ZM135.629 92.2956C139.019 94.2796 141.494 98.7775 141.688 105.808C141.879 112.73 139.761 121.255 135.028 129.565L143.718 134.514C149.211 124.87 151.933 114.555 151.684 105.531C151.438 96.6145 148.189 88.0594 140.68 83.6648L135.629 92.2956ZM135.028 129.565C130.295 137.876 124.077 143.981 118.095 147.257C112.031 150.579 107.007 150.651 103.641 148.681L98.5905 157.312C106.125 161.721 115.116 160.291 122.899 156.028C130.764 151.72 138.225 144.157 143.718 134.514L135.028 129.565ZM103.638 148.68L98.7022 145.795L93.6568 154.429L98.5931 157.313L103.638 148.68ZM98.738 145.816C98.552 145.705 98.4169 145.526 98.3616 145.317L88.6935 147.872C89.4175 150.611 91.1866 152.958 93.621 154.408L98.738 145.816ZM98.3616 145.317C98.3063 145.108 98.3352 144.885 98.4422 144.697L89.7485 139.755C88.3483 142.218 87.9696 145.133 88.6935 147.872L98.3616 145.317ZM98.4402 144.7L129.771 89.6865L121.081 84.7377L89.7505 139.752L98.4402 144.7ZM129.779 89.6711C129.823 89.5933 129.882 89.525 129.953 89.4701L123.814 81.5759C122.699 82.4431 121.767 83.5231 121.072 84.7531L129.779 89.6711ZM129.953 89.4701C130.024 89.4152 130.104 89.3749 130.191 89.3514L127.569 79.7011C126.206 80.0715 124.93 80.7087 123.814 81.5759L129.953 89.4701ZM130.191 89.3514C130.277 89.328 130.367 89.3219 130.455 89.3336L131.756 79.4185C130.356 79.2347 128.932 79.3308 127.569 79.7011L130.191 89.3514ZM130.455 89.3336C130.544 89.3452 130.629 89.3743 130.707 89.4192L135.729 80.7719C134.507 80.0623 133.157 79.6023 131.756 79.4185L130.455 89.3336Z" fill="#4535F6"/>
</svg>
