<svg width="107" height="148" viewBox="0 0 107 148" fill="none" xmlns="http://www.w3.org/2000/svg">
<path d="M39.6071 143.643H67.4643M25.6786 94.8929H81.3929M4.78572 53.1071C4.78572 40.1778 9.92186 27.7781 19.0643 18.6357C28.2067 9.49329 40.6064 4.35715 53.5357 4.35715C66.465 4.35715 78.8648 9.49329 88.0072 18.6357C97.1496 27.7781 102.286 40.1778 102.286 53.1071C102.29 60.9564 100.392 68.6898 96.7531 75.6447C93.1144 82.5995 87.8438 88.5686 81.3929 93.0404L77.6182 110.911C77.1185 114.205 75.4546 117.21 72.9285 119.382C70.4024 121.555 67.1814 122.749 63.8498 122.75H43.2216C39.89 122.749 36.669 121.555 34.1429 119.382C31.6168 117.21 29.953 114.205 29.4532 110.911L25.6786 93.117C19.2255 88.6294 13.9547 82.6463 10.3164 75.679C6.67813 68.7117 4.78053 60.9672 4.78572 53.1071Z" stroke="#4535F6" stroke-width="8.5" stroke-linecap="round" stroke-linejoin="round"/>
</svg>
