<svg width="120" height="120" viewBox="0 0 120 120" fill="none" xmlns="http://www.w3.org/2000/svg">
<g id="Action / search">
<mask id="mask0_51_76" style="mask-type:alpha" maskUnits="userSpaceOnUse" x="17" y="17" width="86" height="86">
<g id="Icon Mask">
<path id="Round" fill-rule="evenodd" clip-rule="evenodd" d="M75.9329 72.3579H79.8829L101.083 93.6579C103.133 95.7079 103.133 99.0579 101.083 101.108C99.0329 103.158 95.6829 103.158 93.6329 101.108L72.3829 79.8579V75.9079L71.0329 74.5079C64.0329 80.5079 54.4829 83.6079 44.3329 81.9079C30.4329 79.5579 19.3329 67.9579 17.6329 53.9579C15.0329 32.8079 32.8329 15.0079 53.9829 17.6079C67.9829 19.3079 79.5829 30.4079 81.9329 44.3079C83.6329 54.4579 80.5329 64.0079 74.5329 71.0079L75.9329 72.3579ZM27.3828 49.8578C27.3828 62.3078 37.4328 72.3578 49.8828 72.3578C62.3328 72.3578 72.3828 62.3078 72.3828 49.8578C72.3828 37.4078 62.3328 27.3578 49.8828 27.3578C37.4328 27.3578 27.3828 37.4078 27.3828 49.8578Z" fill="black"/>
</g>
</mask>
<g mask="url(#mask0_51_76)">
<rect id="Color Fill" width="120" height="120" fill="#858C94"/>
</g>
</g>
</svg>
