<svg width="150" height="114" viewBox="0 0 150 114" fill="none" xmlns="http://www.w3.org/2000/svg">
<path d="M132.929 1.87015C131.325 0.832672 129.491 0.205017 127.588 0.0423613C125.685 -0.120295 123.771 0.18703 122.015 0.93732L64.459 23.6052C63.0963 24.1598 61.6391 24.4449 60.1679 24.4448H23.3209C20.2284 24.4448 17.2625 25.6733 15.0757 27.86C12.889 30.0468 11.6604 33.0127 11.6604 36.1052V37.0381H0V65.0231H11.6604V66.2358C11.7335 69.2796 12.9942 72.1741 15.1731 74.3007C17.352 76.4273 20.2762 77.6173 23.3209 77.6164L37.3134 107.281C38.2609 109.278 39.7526 110.968 41.6172 112.156C43.4818 113.344 45.6436 113.982 47.8545 113.997H53.7313C56.8077 113.972 59.7497 112.733 61.9163 110.549C64.0829 108.365 65.2986 105.413 65.2985 102.337V78.7358L122.015 101.404C123.41 101.959 124.898 102.244 126.399 102.243C128.729 102.206 130.997 101.493 132.929 100.191C134.463 99.1551 135.729 97.7687 136.621 96.1466C137.513 94.5245 138.006 92.7132 138.06 90.8627V11.4784C138.051 9.58019 137.579 7.7128 136.685 6.03838C135.791 4.36395 134.502 2.93312 132.929 1.87015ZM53.6381 36.1052V66.2358H23.3209V36.1052H53.6381ZM53.6381 102.337H47.7612L36.2873 77.6164H53.6381V102.337ZM68.75 67.6351C67.6424 67.0691 66.4875 66.6009 65.2985 66.2358V35.4522C66.4762 35.2093 67.6309 34.866 68.75 34.4261L126.399 11.4784V90.5828L68.75 67.6351ZM138.34 39.3702V62.6911C141.432 62.6911 144.398 61.4625 146.585 59.2758C148.772 57.089 150 54.1231 150 51.0306C150 47.9381 148.772 44.9722 146.585 42.7854C144.398 40.5987 141.432 39.3702 138.34 39.3702Z" fill="#4535F6"/>
</svg>
