<svg width="71" height="71" viewBox="0 0 71 71" fill="none" xmlns="http://www.w3.org/2000/svg">
<path d="M68.7052 26.8332L47.4208 23.7398L37.9061 4.45058C37.6462 3.92245 37.2187 3.49492 36.6906 3.23504C35.366 2.58117 33.7565 3.12606 33.0942 4.45058L23.5796 23.7398L2.29513 26.8332C1.70832 26.917 1.17181 27.1936 0.761045 27.6128C0.264451 28.1232 -0.00919537 28.8099 0.000235947 29.5219C0.00966727 30.234 0.301404 30.9132 0.811343 31.4103L16.2109 46.4242L12.5727 67.6248C12.4874 68.118 12.5419 68.6252 12.7302 69.0889C12.9185 69.5527 13.2329 69.9544 13.6379 70.2485C14.0429 70.5426 14.5221 70.7174 15.0214 70.753C15.5206 70.7886 16.0198 70.6836 16.4624 70.4499L35.5002 60.4406L54.5379 70.4499C55.0577 70.7265 55.6613 70.8187 56.2397 70.7181C57.6983 70.4666 58.6791 69.0835 58.4277 67.6248L54.7894 46.4242L70.189 31.4103C70.6081 30.9995 70.8848 30.463 70.9686 29.8762C71.195 28.4092 70.1722 27.0511 68.7052 26.8332V26.8332Z" fill="#FFB800"/>
</svg>
